<svg xmlns="http://www.w3.org/2000/svg" width="256" height="256" viewBox="0 0 256 256"><path fill="#ffffe8" stroke="#8ccc90" stroke-linecap="round" stroke-linejoin="round" stroke-width="10" d="M109.5 42.4c8.5 24.6-6.1 61.4-6.6 61.6S67.1 84.5 58.6 59.9 54.7 11.4 68.7 6.6s32.3 11.2 40.8 35.8z"/><path fill="#ffffe8" stroke="#8ccc90" stroke-linecap="round" stroke-linejoin="round" stroke-width="10" d="M62.1 63.6c23 12.2 38.4 47.3 38.2 47.8s-38.5 8.4-61.5-3.8-36.4-31.9-30-44 30.3-12.2 53.3 0z"/><g stroke-linecap="round" stroke-linejoin="round" stroke-width="10"><ellipse cx="150.8" cy="165.5" fill="#ffffe8" stroke="#8ccc90" rx="100.7" ry="80.6" transform="rotate(-21.3 150.853 165.463)"/><path fill="#8ccc90" stroke="#00a872" d="M116 92.6c-12.5 4.7-23.1 13.3-32.7 20.8 28 32.8 65.7 79.8 90.6 129.3l2.6-.9a123.9 123.9 0 0 0 43.9-27.7c-24.7-47.6-61.2-94.4-88.4-126.4a139.6 139.6 0 0 0-16 4.9z"/></g><path fill="#8ccc90" stroke="#00a872" stroke-linecap="round" stroke-linejoin="round" stroke-width="10" d="M76.3 227.6l-58.9 22.3 41.1-47.8 17.8 25.5z"/></svg>