<svg xmlns="http://www.w3.org/2000/svg" width="800" height="550" viewBox="0 0 800 550"><ellipse cx="60.4" cy="386.4" fill="#00a872" stroke="#276654" stroke-linecap="round" stroke-linejoin="round" stroke-width="7" rx="51.1" ry="29.1" transform="rotate(-10.2 60.37 386.561)"/><ellipse cx="237.1" cy="62.6" fill="#00a872" stroke="#276654" stroke-linecap="round" stroke-linejoin="round" stroke-width="7" rx="29.1" ry="51.1" transform="rotate(-45 237.122 62.58)"/><ellipse cx="630.9" cy="85.5" fill="#00a872" stroke="#276654" stroke-linecap="round" stroke-linejoin="round" stroke-width="7" rx="51.1" ry="29.1" transform="rotate(-18.6 630.612 85.396)"/><ellipse cx="740.2" cy="250.1" fill="#00a872" stroke="#276654" stroke-linecap="round" stroke-linejoin="round" stroke-width="7" rx="51.1" ry="29.1" transform="rotate(-13.4 742.927 250.814)"/><path fill="#8ccc90" stroke="#00a872" stroke-linecap="round" stroke-linejoin="round" stroke-width="7" d="M618.1 526.7c98.7 6.4 124.9-22.7 88-59.6 52.5 2.8 83.8-85.2 1.5-102.2 61-18.4 62.4-79.5-10-80.9 95.1-28.4 52.5-158.9-56.8-158.9 21.3-21.3-17-63.9-45.4-35.5 35.5-68.1-102.2-68.1-130.5-27-18.5-63.9-114.3-44.7-114.3 9.2-49.7-52.5-93.7-26.9-93.7 14.2-103.6-58.2-170.3 25.6-126.3 68.2-49.6-14.2-100 40.4-41.8 74.5-82.3 45.4-75.2 150.4-1.4 150.4-61.1 28.4-41.9 112.8 22 112.8-36.9 25.6 5.6 32.7 79.4 32.7z"/></svg>