<svg xmlns="http://www.w3.org/2000/svg" width="800" height="800" viewBox="0 0 800 800"><g stroke-width="4"><rect width="87.7" height="190.45" x="182" y="428.3" fill="#c69c6d" stroke="#a67c52" stroke-miterlimit="10" rx="11.1"/><rect width="64.8" height="165.89" x="193.5" y="440.6" fill="#ffffe8" stroke="#8ccc90" stroke-miterlimit="10" rx="9.5"/><path fill="#e6e6e6" stroke="#b3b3b3" stroke-linecap="round" stroke-linejoin="round" d="M205.5 427.9v16.6a2.9 2.9 0 0 0 2.9 2.9h34.9a2.9 2.9 0 0 0 3-2.9v-16.6a2.9 2.9 0 0 0-3-3h-4a3 3 0 0 1-3-2.9 3 3 0 0 0-2.9-3h-15a3.1 3.1 0 0 0-3 3 2.9 2.9 0 0 1-3 2.9h-4a2.9 2.9 0 0 0-2.9 3z"/><path fill="#ecff69" stroke="#8ccc90" stroke-linecap="round" stroke-linejoin="round" d="M205.5 461.6h40.8m-40.8 14.2h40.8M205.5 490h40.8m-40.8 14.2h40.8m-40.8 14.2h40.8m-40.8 14.2h40.8m-40.8 14.1h40.8m-40.8 14.2h40.8m-40.8 14.2h40.8m-40.8 14.2h40.8"/></g><g stroke-width="4"><rect width="87.7" height="35.78" x="283.2" y="583" fill="#c69c6d" stroke="#a67c52" stroke-miterlimit="10" rx="7.9"/><rect width="74.3" height="28.17" x="290.9" y="586.4" fill="#ffffe8" stroke="#8ccc90" stroke-miterlimit="10" rx="6.9"/><path fill="#e6e6e6" stroke="#b3b3b3" stroke-linecap="round" stroke-linejoin="round" d="M306.6 582.1v7.5c0 .7 1.3 1.3 3 1.3h34.9c1.6 0 3-.6 3-1.3v-7.5c0-.7-1.4-1.3-3-1.3h-4c-1.7 0-3-.6-3-1.4 0-.7-1.3-1.3-3-1.3h-14.9c-1.7 0-3 .6-3 1.3 0 .8-1.4 1.4-3 1.4h-4c-1.7 0-3 .6-3 1.3z"/><path fill="#ecff69" stroke="#8ccc90" stroke-linecap="round" stroke-linejoin="round" d="M306.6 599h40.8m-40.8 9h40.8"/></g><g stroke-width="4"><rect width="87.7" height="392.98" x="381.8" y="225.8" fill="#c69c6d" stroke="#a67c52" stroke-miterlimit="10" rx="11.1"/><rect width="64.8" height="367.86" x="393.2" y="237.4" fill="#ffffe8" stroke="#8ccc90" stroke-miterlimit="10" rx="9.5"/><path fill="#e6e6e6" stroke="#b3b3b3" stroke-linecap="round" stroke-linejoin="round" d="M405.2 225.1v18.1a3.1 3.1 0 0 0 3 3.2H443a3.1 3.1 0 0 0 3-3.2v-18.1a3.1 3.1 0 0 0-3-3.2h-3.9a3.1 3.1 0 0 1-3-3.2 3.1 3.1 0 0 0-3-3.2h-15a3.1 3.1 0 0 0-3 3.2 3.1 3.1 0 0 1-2.9 3.2h-4a3.1 3.1 0 0 0-3 3.2z"/><path fill="#ecff69" stroke="#8ccc90" stroke-linecap="round" stroke-linejoin="round" d="M405.2 262.8H446m-40.8 15.4H446m-40.8 15.5H446m-40.8 15.5H446m-40.8 15.4H446m-40.8 15.5H446m-40.8 15.4H446M405.2 371H446m-40.8 15.5H446m-40.8 15.4H446m-40.8 15.5H446m-40.8 15.5H446m-40.8 15.4H446m-40.8 15.5H446m-40.8 15.4H446m-40.8 15.5H446m-40.8 15.5H446m-40.8 15.4H446m-40.8 15.5H446m-40.8 15.4H446M405.2 572H446m-40.8 15.5H446"/></g><g stroke-width="4"><rect width="87.7" height="472.83" x="485.5" y="145.9" fill="#c69c6d" stroke="#a67c52" stroke-miterlimit="10" rx="11.1"/><rect width="64.8" height="451.94" x="496.9" y="157.2" fill="#ffffe8" stroke="#8ccc90" stroke-miterlimit="10" rx="9.5"/><path fill="#e6e6e6" stroke="#b3b3b3" stroke-linecap="round" stroke-linejoin="round" d="M508.9 143.1v18a3.1 3.1 0 0 0 3 3.2h34.9a3.1 3.1 0 0 0 2.9-3.2v-18a3 3 0 0 0-2.9-3.2h-4a3.1 3.1 0 0 1-3-3.2 3.2 3.2 0 0 0-3-3.2h-15a3.2 3.2 0 0 0-3 3.2 3 3 0 0 1-2.9 3.2h-4a3.1 3.1 0 0 0-3 3.2z"/><path fill="#ecff69" stroke="#8ccc90" stroke-linecap="round" stroke-linejoin="round" d="M508.9 190.4h40.8m-40.8-15.3h40.8M508.9 209h40.8m-40.8 18.7h40.8m-40.8 18.6h40.8m-40.8 18.6h40.8m-40.8 18.6h40.8m-40.8 18.6h40.8m-40.8 18.6h40.8m-40.8 18.6h40.8m-40.8 18.6h40.8m-40.8 18.6h40.8m-40.8 18.6h40.8m-40.8 18.6h40.8m-40.8 18.6h40.8m-40.8 18.6h40.8m-40.8 18.6h40.8m-40.8 18.6h40.8m-40.8 18.6h40.8m-40.8 18.6h40.8m-40.8 18.6h40.8m-40.8 18.6h40.8m-40.8 18.6h40.8m-40.8 16.7h40.8"/></g><g stroke-width="4"><rect width="87.7" height="450.37" x="585.3" y="168.4" fill="#c69c6d" stroke="#a67c52" stroke-miterlimit="10" rx="11.1"/><rect width="64.8" height="430.18" x="596.8" y="177.7" fill="#ffffe8" stroke="#8ccc90" stroke-miterlimit="10" rx="9.5"/><path fill="#e6e6e6" stroke="#b3b3b3" stroke-linecap="round" stroke-linejoin="round" d="M608.7 165.7V183a3 3 0 0 0 3 3h34.9a2.9 2.9 0 0 0 3-3v-17.3a2.9 2.9 0 0 0-3-3h-4a3.1 3.1 0 0 1-3-3.1 3 3 0 0 0-2.9-3h-15a3.1 3.1 0 0 0-3 3 3 3 0 0 1-3 3.1h-4a3 3 0 0 0-3 3z"/><path fill="#ecff69" stroke="#8ccc90" stroke-linecap="round" stroke-linejoin="round" d="M608.7 210.8h40.9m-40.9-16.7h40.9m-40.9 34.4h40.9m-40.9 17.7h40.9m-40.9 17.7h40.9m-40.9 17.8h40.9m-40.9 17.7h40.9m-40.9 17.7h40.9m-40.9 17.7h40.9m-40.9 17.7h40.9m-40.9 17.8h40.9M608.7 388h40.9m-40.9 17.7h40.9m-40.9 17.7h40.9m-40.9 17.7h40.9m-40.9 17.8h40.9m-40.9 17.7h40.9m-40.9 17.7h40.9M608.7 512h40.9m-40.9 17.7h40.9m-40.9 17.8h40.9m-40.9 17.7h40.9m-40.9 17.7h40.9M608.7 597h40.9"/></g><g stroke-width="4"><rect width="87.7" height="437.9" x="686.5" y="180.9" fill="#c69c6d" stroke="#a67c52" stroke-miterlimit="10" rx="11.1"/><rect width="64.8" height="418.66" x="697.9" y="189.2" fill="#ffffe8" stroke="#8ccc90" stroke-miterlimit="10" rx="9.5"/><path fill="#e6e6e6" stroke="#b3b3b3" stroke-linecap="round" stroke-linejoin="round" d="M709.9 178.1v16.5a2.9 2.9 0 0 0 3 3h34.9a2.9 2.9 0 0 0 2.9-3v-16.5a2.9 2.9 0 0 0-2.9-2.9h-4a2.9 2.9 0 0 1-3-2.9 3 3 0 0 0-3-2.9h-15a2.9 2.9 0 0 0-2.9 2.9 3 3 0 0 1-3 2.9h-4a2.9 2.9 0 0 0-3 2.9z"/><path fill="#ecff69" stroke="#8ccc90" stroke-linecap="round" stroke-linejoin="round" d="M709.9 222.1h40.8M709.9 208h40.8m-40.8 31.3h40.8m-40.8 17.2h40.8m-40.8 17.3h40.8M709.9 291h40.8m-40.8 17.2h40.8m-40.8 17.3h40.8m-40.8 17.2h40.8m-40.8 17.2h40.8m-40.8 17.2h40.8m-40.8 17.3h40.8m-40.8 17.2h40.8m-40.8 17.2h40.8m-40.8 17.3h40.8m-40.8 17.2h40.8m-40.8 17.2h40.8m-40.8 17.2h40.8M709.9 515h40.8m-40.8 17.2h40.8m-40.8 17.2h40.8m-40.8 17.3h40.8m-40.8 17.2h40.8m-40.8 12.8h40.8"/></g><g fill="none" stroke="#276654" stroke-linecap="round" stroke-miterlimit="10" stroke-width="6"><path d="M85.4 145.8v6"/><path stroke-dasharray="11.99 11.99" d="M85.4 163.8v449.5"/><path d="M85.4 619.3v6h6"/><path stroke-dasharray="11.97 11.97" d="M103.4 625.3h664.4"/><path d="M773.8 625.3h6"/></g><path fill="#276654" d="M88 658h5.1v-12.3H89V640h10.1v18h4.4v5.8H88zm23.5-1.3a8.2 8.2 0 0 1-7-8.4 8.7 8.7 0 1 1 17.3 0 9.6 9.6 0 0 1-1.5 5.1l-6.3 10.4h-7.1zm1.7-5.7a2.6 2.6 0 0 0 2.6-2.7 2.7 2.7 0 0 0-2.6-2.8 2.8 2.8 0 0 0-2.7 2.8 2.7 2.7 0 0 0 2.7 2.7zm17.7 12.8h-6.8l7.2-18.1h-7.5V640h14.1v5zm27-15.3v6.8a9 9 0 0 1-17.9 0v-6.8a9 9 0 0 1 17.9 0zm-12 .1v6.5c0 1.9 1.1 3.3 3 3.3s3-1.4 3-3.3v-6.5a3 3 0 1 0-6 0zm43.2 9.4h5.1v-12.3h-4.1V640h10.1v18h4.4v5.8h-15.5zm23.6-1.3a8.2 8.2 0 0 1-7.1-8.4 8.7 8.7 0 1 1 17.4 0 10.5 10.5 0 0 1-1.5 5.1l-6.4 10.4H208zm1.6-5.7a2.6 2.6 0 0 0 2.6-2.7 2.7 2.7 0 0 0-2.6-2.8 2.8 2.8 0 0 0-2.7 2.8 2.7 2.7 0 0 0 2.7 2.7zm17.7 12.8h-6.8l7.2-18.1h-7.5V640H239v5zm15.8 0H241l7.2-18.1h-7.5V640h14.1v5zm43.4-5.8h5.1v-12.3h-4.1V640h10.1v18h4.4v5.8h-15.5zm23.6-1.3a8.3 8.3 0 0 1-7.1-8.4 8.7 8.7 0 0 1 17.4 0 10.5 10.5 0 0 1-1.5 5.1l-6.3 10.4h-7.2zm1.6-5.7a2.7 2.7 0 0 0 2.7-2.7 2.8 2.8 0 0 0-2.7-2.8 2.7 2.7 0 0 0-2.6 2.8 2.6 2.6 0 0 0 2.6 2.7zm17.6 5.7a8.2 8.2 0 0 1-7-8.4 8.7 8.7 0 1 1 17.3 0 9.6 9.6 0 0 1-1.5 5.1l-6.3 10.4h-7.1zm1.6-5.7a2.7 2.7 0 0 0 2.7-2.7 2.8 2.8 0 0 0-2.7-2.8 2.7 2.7 0 0 0-2.6 2.8 2.6 2.6 0 0 0 2.6 2.7zm20.8-3.6a8 8 0 0 1 7.1 8.1 8.7 8.7 0 1 1-17.3 0 9.9 9.9 0 0 1 1.5-5.2L354 640h7.2zm-1.5 5.4a2.7 2.7 0 1 0 0 5.4 2.7 2.7 0 0 0 0-5.4zm35.7 5.9l6.2-7.7a5.7 5.7 0 0 0 1.5-3.1 2.2 2.2 0 0 0-2.3-2.4 7.9 7.9 0 0 0-5 2.1V641a11.5 11.5 0 0 1 5.5-1.4c5.7 0 7.9 3.7 7.9 7.1a9.9 9.9 0 0 1-2.4 6.7l-3.6 4.6h5.8v5.8h-13.6zm34.5-10.2v6.8a8.9 8.9 0 0 1-17.8 0v-6.8a8.9 8.9 0 0 1 17.8 0zm-11.9.1v6.5c0 1.9 1.1 3.3 3 3.3s3-1.4 3-3.3v-6.5a3 3 0 1 0-6 0zm32.6-.1v6.8a8.9 8.9 0 0 1-17.8 0v-6.8a8.9 8.9 0 0 1 17.8 0zm-11.9.1v6.5c0 1.9 1.1 3.3 3 3.3s3-1.4 3-3.3v-6.5a3 3 0 1 0-6 0zm21.4 8.1a8.3 8.3 0 0 1-7.1-8.4 8.7 8.7 0 0 1 17.4 0 10.5 10.5 0 0 1-1.5 5.1l-6.3 10.4h-7.2zm1.6-5.7a2.6 2.6 0 0 0 2.6-2.7 2.6 2.6 0 1 0-5.2 0 2.6 2.6 0 0 0 2.6 2.7zm36.8 7.7l6.2-7.7a5.7 5.7 0 0 0 1.5-3.1 2.2 2.2 0 0 0-2.3-2.4 7.4 7.4 0 0 0-4.9 2.1V641a11.4 11.4 0 0 1 5.4-1.4c5.7 0 7.9 3.7 7.9 7.1a10.4 10.4 0 0 1-2.3 6.7l-3.7 4.6h5.8v5.8h-13.6zm34.5-10.2v6.8a8.9 8.9 0 0 1-17.8 0v-6.8a8.9 8.9 0 0 1 17.8 0zm-11.9.1v6.5c0 1.9 1.1 3.3 3 3.3s3-1.4 3-3.3v-6.5a3 3 0 1 0-6 0zm14.4 9.4h5.1v-12.3h-4V640h10v18h4.4v5.8h-15.5zm35.3-9.5v6.8a8.9 8.9 0 0 1-17.8 0v-6.8a8.9 8.9 0 1 1 17.8 0zm-11.9.1v6.5c0 1.9 1.1 3.3 3 3.3s3-1.4 3-3.3v-6.5a3 3 0 1 0-6 0zm42.7 10.1l6.2-7.7a5.7 5.7 0 0 0 1.5-3.1 2.1 2.1 0 0 0-2.2-2.4 7.4 7.4 0 0 0-5 2.1V641a11.4 11.4 0 0 1 5.4-1.4c5.8 0 7.9 3.7 7.9 7.1a10.4 10.4 0 0 1-2.3 6.7l-3.7 4.6h5.8v5.8h-13.6zm34.5-10.2v6.8a8.9 8.9 0 0 1-17.8 0v-6.8a8.9 8.9 0 1 1 17.8 0zm-11.9.1v6.5c0 1.9 1.1 3.3 3 3.3s3-1.4 3-3.3v-6.5a3 3 0 1 0-6 0zm14.4 9.4h5.2v-12.3h-4.1V640h10v18h4.5v5.8h-15.6zm17.1 0h5.1v-12.3h-4V640h10v18h4.4v5.8h-15.5zm46 .7l6.2-7.7a5.7 5.7 0 0 0 1.5-3.1 2.1 2.1 0 0 0-2.2-2.4 7.6 7.6 0 0 0-5 2.1V641a11.4 11.4 0 0 1 5.4-1.4c5.8 0 7.9 3.7 7.9 7.1a10.4 10.4 0 0 1-2.3 6.7l-3.7 4.6h5.9v5.8h-13.7zm34.6-10.2v6.8a9 9 0 0 1-17.9 0v-6.8a9 9 0 0 1 17.9 0zm-11.9.1v6.5c0 1.9 1 3.3 2.9 3.3s3-1.4 3-3.3v-6.5a2.9 2.9 0 0 0-3-3.2c-1.9 0-2.9 1.3-2.9 3.2zm14.3 9.4h5.2v-12.3H735V640h10v18h4.5v5.8h-15.6zm19.4-9.3h3.2c1 0 1.9-.5 1.9-1.5s-.8-1.7-2.1-1.7a7.7 7.7 0 0 0-4.5 1.4v-6.4a15.7 15.7 0 0 1 4.8-.9c4.9 0 7.9 3 7.9 6.8a5.8 5.8 0 0 1-2.7 5.2 5.9 5.9 0 0 1 3.3 5.6c0 3.8-3.4 7-8.3 7a16.1 16.1 0 0 1-5.3-1v-6.7a6.9 6.9 0 0 0 4.9 1.7c1.5 0 2.6-.8 2.6-1.9s-1-1.8-2.5-1.8h-3.2zM62.4 631.9v6.9a8.9 8.9 0 1 1-17.8 0v-6.9a8.6 8.6 0 0 1 8.9-8.8 8.6 8.6 0 0 1 8.9 8.8zm-11.9.2v6.5a3 3 0 1 0 6 0v-6.5a3 3 0 1 0-6 0zM27.1 561h5.2v-12.4h-4.1v-5.7h10V561h4.5v5.7H27.1zm35.3-9.6v6.8a8.9 8.9 0 0 1-17.8 0v-6.8a8.6 8.6 0 0 1 8.9-8.9 8.6 8.6 0 0 1 8.9 8.9zm-11.9.1v6.6a3 3 0 1 0 6 0v-6.6a3 3 0 1 0-6 0zm-22.6-70.4l6.2-7.7a5.9 5.9 0 0 0 1.5-3.2 2.2 2.2 0 0 0-2.3-2.3 6.9 6.9 0 0 0-4.9 2.1v-6.7a11.4 11.4 0 0 1 5.4-1.4c5.7 0 7.9 3.7 7.9 7.2a10.1 10.1 0 0 1-2.3 6.6l-3.7 4.7h5.8v5.7H27.9zm34.5-10.3v6.8a8.6 8.6 0 0 1-8.9 8.9 8.6 8.6 0 0 1-8.9-8.9v-6.8a8.9 8.9 0 0 1 17.8 0zm-11.9.2v6.5a3 3 0 1 0 6 0V471a3 3 0 1 0-6 0zm-20.4-81.1h3.2c1.1 0 1.9-.6 1.9-1.6s-.8-1.6-2-1.6a8.1 8.1 0 0 0-4.6 1.4v-6.4a13.3 13.3 0 0 1 4.8-1c4.9 0 8 3 8 6.8a5.7 5.7 0 0 1-2.7 5.2 6 6 0 0 1 3.3 5.6c0 3.9-3.4 7-8.3 7a17.3 17.3 0 0 1-5.4-1v-6.7a7.4 7.4 0 0 0 5 1.8c1.4 0 2.6-.8 2.6-2s-1-1.8-2.5-1.8h-3.3zm32.3-.3v6.8a8.6 8.6 0 0 1-8.9 8.9 8.6 8.6 0 0 1-8.9-8.9v-6.8a8.6 8.6 0 0 1 8.9-8.9 8.6 8.6 0 0 1 8.9 8.9zm-11.9.2v6.5a3 3 0 1 0 6 0v-6.5c0-2-1.1-3.3-3-3.3s-3 1.3-3 3.3zm-11.2-69.6v4.3h-5.9v-4.3h-9.8v-5.1l9.8-14.4h5.9v13.7H42v5.8zm-5.9-5.8v-5.5l-3.6 5.5zm29-5.3v6.9a8.9 8.9 0 0 1-17.8 0v-6.9a8.6 8.6 0 0 1 8.9-8.8 8.6 8.6 0 0 1 8.9 8.8zm-11.9.2v6.5a3 3 0 1 0 6 0v-6.5a3 3 0 1 0-6 0zM34.7 226l-.3 2.2c4.6.4 7.4 3.3 7.4 7.7s-3.7 8.5-8.7 8.5a14.1 14.1 0 0 1-5.7-1.2v-7.1a7.9 7.9 0 0 0 5.3 2.4 2.8 2.8 0 0 0 3-2.6c0-2.1-2.1-2.2-4.2-2.2h-3.2l1-13.5h12v5.8zm27.7 2.7v6.8a8.6 8.6 0 0 1-8.9 8.9 8.6 8.6 0 0 1-8.9-8.9v-6.8a8.6 8.6 0 0 1 8.9-8.9 8.6 8.6 0 0 1 8.9 8.9zm-11.9.2v6.5a3 3 0 1 0 6 0v-6.5c0-2-1.1-3.3-3-3.3s-3 1.3-3 3.3zM35 146.2c3.9.6 7.2 3.4 7.2 8.1a8.7 8.7 0 0 1-17.4 0 10.9 10.9 0 0 1 1.5-5.2l6.3-10.3h7.2zm-1.5 5.4a2.7 2.7 0 1 0 2.6 2.7 2.6 2.6 0 0 0-2.6-2.7zm28.9-4.4v6.9a8.9 8.9 0 1 1-17.8 0v-6.9a8.6 8.6 0 0 1 8.9-8.8 8.6 8.6 0 0 1 8.9 8.8zm-11.9.2v6.5a3 3 0 1 0 6 0v-6.5a3 3 0 1 0-6 0z"/></svg>