<svg xmlns="http://www.w3.org/2000/svg" width="1920" height="170" viewBox="0 0 1920 170"><path fill="#e5f5d3" d="M0 0h1920v170H0z"/><path fill="#b8e7c6" d="M0 134.5C35.5 99.1 37.9 11.8 37.9 11.8c24.8 17.7 33.7 87.3 40.9 115.6 0 0 46.7-35.4 46.7-68.4 0 0 16.5 26 21.3 37.8 9.5-28.4 40.2-85 40.2-85-4.7 30.7 2.4 94.4 26.1 122.7 0 0 18.9-23.6 26-73.1l26.1 66c30.7-25.9 21.3-115.6 21.3-115.6s49.7 77.9 52 122.7c0 0 35.4-58.2 45-94.4l14.2 59s19-11.8 26.1-75.5l30.7 63.7S480.6 44.8 485.3 0c0 0 16.6 82.6 30.8 118l21.3-82.6 30.8 47.2s18.9-14.2 28.4-33l16.6 59c14.2-44.9 49.7-59 66.3-59-28.5 28.3 0 75.5 0 75.5l18.9-68.5s2.4 44.9 33.1 59c8.3-50.7-10.6-105-10.6-105 24.8 17.7 65.1 88.5 72.2 116.8 0 0 21.3-35.4 21.3-68.4 0 0 16.6 26 21.3 37.8 9.5-28.4 40.3-85 40.3-85-4.8 30.7 2.3 94.4 26 122.7 0 0 18.9-23.6 26-73.1l26.1 66c30.8-25.9 21.3-115.6 21.3-115.6s49.7 77.9 52.1 122.7c0 0 35.3-58.2 45-94.4l14.2 59s18.9-11.8 26-75.5l30.8 63.7s26-42.5 30.8-87.3c0 0 16.5 82.6 30.7 118l21.3-82.6 30.8 47.2s19-14.2 28.4-33l16.6 59c9.5-33.1 33.1-52 49.7-59 0 0-7.1 35.4 9.5 51.9 2.3-28.3 40.2-89.7 40.2-89.7-4.7 30.7 2.4 94.4 26.1 122.7 0 0 18.9-23.6 26-73.1l26.1 66c30.7-25.9 21.3-115.6 21.3-115.6s49.7 77.9 52 122.7c0 0 35.4-58.2 45-94.4l14.2 59s19-11.8 26.1-75.5l30.8 63.7s26-42.5 30.7-87.3c0 0 16.6 82.6 30.8 118l21.3-82.6 30.8 47.2s31.4-14.2 40.9-33l16.5 59c14.2-44.9 42.6-59 59.2-61.4-26 30.7 20.7 87.3 20.7 87.3V170H0z"/></svg>