<svg xmlns="http://www.w3.org/2000/svg" width="256" height="256" viewBox="0 0 256 256"><path fill="#ffffe8" stroke="#8ccc90" stroke-linecap="round" stroke-linejoin="round" stroke-width="6" d="M227.4 18.1c0-12.7-5.3-10.7-8.7-4-2-11.3-7.3-7.3-7.3-4-8.1-4-12.1 4.7-6.7 14.7-45.5 19.4-28.8 45.5-49.5 74.2-11.4 11.4-56.2-2.6-76.9-1.3-24.1-15.4-27.4-62.8-41.4-57.5-10.4 3.9-6.1 19.4-6.1 19.4-8.6-10.7-20.7-1.3-12.7 13.4-16-9.4-13.3 15.3-6 22.7-16-6 4 32.1 21.4 38.8 0 0-2.7 5.3-12.7 0 0 0-4 19.4 22.7 30.7-4.6 28.1 35 100.6 135.1 54.9 102.3-46.9 26.1-119.7 40.1-155.8 6.7 8.7 16.7 5.3 18.1-10.7 6-6 12.7 2 12.7 2a12.2 12.2 0 0 0-7.4-14.1c4.7-9.3.7-19.4-5.3-17.3 0-10.1-4.7-9.4-9.4-6.1z"/><circle cx="221.4" cy="41.7" r="5" fill="#8ccc90"/><path fill="#8ccc90" stroke="#00a872" stroke-linecap="round" stroke-linejoin="round" stroke-width="6" d="M109.3 201.3c2.2 15.3-5.7 29-17.6 30.7s-23.3-9.3-25.4-24.6S74 173.3 83.2 172s24.2 15.5 26.1 29.3z"/><path fill="#8ccc90" stroke="#00a872" stroke-linecap="round" stroke-linejoin="round" stroke-width="6" d="M149.7 191.1c.6 15.4-8.6 28.3-20.6 28.8s-22.3-11.7-22.9-27.1 11.1-33.1 20.4-33.5 22.5 17.8 23.1 31.8zm43.5 8.6c1.1 15.4-7.7 28.6-19.7 29.4s-22.6-10.9-23.7-26.3 10-33.4 19.3-34.1 23.1 17 24.1 31z"/><path fill="#8ccc90" stroke="#00a872" stroke-linecap="round" stroke-linejoin="round" stroke-width="6" d="M127.9 218.4c2.2 15.3-5.7 29-17.6 30.7s-23.3-9.4-25.4-24.6 7.7-34.1 17-35.4 24.1 15.4 26 29.3z"/><path fill="#8ccc90" stroke="#00a872" stroke-linecap="round" stroke-linejoin="round" stroke-width="6" d="M171.4 221c.3 15.4-9.2 28.1-21.2 28.4s-22-12-22.3-27.5c-.3-14 11.7-32.9 21-33.1s22.2 18.2 22.5 32.2z"/></svg>