<svg xmlns="http://www.w3.org/2000/svg"><symbol id="benefits-share" viewBox="0 0 256 256"><circle cx="128.5" cy="71.1" r="19.3" fill="#ffffe8"/><path fill="#00a872" d="M128.5 56.3a14.8 14.8 0 1 1-14.8 14.8 14.8 14.8 0 0 1 14.8-14.8m0-9a23.8 23.8 0 1 0 23.8 23.8 23.8 23.8 0 0 0-23.8-23.8z"/><path fill="#ffffe8" stroke="#00a872" stroke-linecap="round" stroke-linejoin="round" stroke-width="9" d="M102.6 187.9h51.9c4.3-116.8-56.3-116.8-51.9 0z"/><path fill="#ffffe8" d="M211.6 112.1a18 18 0 1 1 17.9-17.9 18 18 0 0 1-17.9 17.9z"/><path fill="#00a872" d="M211.6 80.7a13.5 13.5 0 1 1-13.5 13.5 13.5 13.5 0 0 1 13.5-13.5m0-9A22.5 22.5 0 1 0 234 94.2a22.5 22.5 0 0 0-22.4-22.5z"/><path fill="#ffffe8" stroke="#00a872" stroke-linecap="round" stroke-linejoin="round" stroke-width="9" d="M187.1 204.2H236c4.1-110-53-110-48.9 0z"/><path fill="none" stroke="#00a872" stroke-linecap="round" stroke-linejoin="round" stroke-width="9" d="M54 123.3l33.2 21.8 28.6-36.7m24.6-.1L173 149l32.8-26"/><path fill="#ffffe8" stroke="#00a872" stroke-linecap="round" stroke-linejoin="round" stroke-width="9" d="M41.9 123L5.7 149.2m211.3-26l33.3 26"/><path fill="#ffffe8" d="M48.5 112.1a18 18 0 1 1 17.9-17.9 17.9 17.9 0 0 1-17.9 17.9z"/><path fill="#00a872" d="M48.5 80.7a13.5 13.5 0 1 1-13.4 13.5 13.5 13.5 0 0 1 13.4-13.5m0-9a22.5 22.5 0 1 0 22.4 22.5 22.4 22.4 0 0 0-22.4-22.5z"/><path fill="#ffffe8" stroke="#00a872" stroke-linecap="round" stroke-linejoin="round" stroke-width="9" d="M24.1 204.2H73c4.1-110-53-110-48.9 0z"/></symbol><symbol id="benefits-edu" viewBox="0 0 256 256"><path fill="#ffffe8" stroke="#00a872" stroke-linecap="round" stroke-linejoin="round" stroke-width="9" d="M125.2 60.9C180.6 11.1 247 44.3 247 44.3v204.8c-66.4-44.3-117.6-5.6-117.6-5.6-33.2-16.6-76.1-27.7-120.4 5.6V44.3c72-27.7 116.2 16.6 116.2 16.6z"/><path fill="#ffffe8" stroke="#00a872" stroke-linecap="round" stroke-linejoin="round" stroke-width="9" d="M125.7 31.5c46.6-33.2 101.9-16.6 101.9-16.6v199.2c-48.4-37-99.6 5.6-99.6 5.6-20.8-20.5-65-31.5-99.6-5.6V14.9c66.4-11.1 97.3 16.6 97.3 16.6zm2.3 1.7v186.5"/><path fill="#ffffe8" stroke="#00a872" stroke-linecap="round" stroke-linejoin="round" stroke-width="9" d="M179.2 215.8l-13.8-11.6-13.9 11.6V12.7l27.7-5.8v208.9zM52.4 44.2c20.5-1.4 32.5.1 48 6.2m-48 22c20.5-1.4 32.5.2 48 6.2m-48 22.1c20.5-1.4 32.5.1 48 6.2m-48 26.1c20.5-1.5 32.5.1 48 6.1m-48 26.2c20.5-1.5 32.5.1 48 6.1"/></symbol><symbol id="benefits-tree" viewBox="0 0 256 256"><path fill="#ffffe8" stroke="#00a872" stroke-linecap="round" stroke-linejoin="round" stroke-width="9" d="M155.6 29.4C163-15.7 61.5 8.9 82 58c-36.8 4.1-57.3 53.2-12.3 73.7-32.7 49.1 16.4 57.2 57.3 32.7 44.6 24.4 73.5 12.2 61.4-16.4 28.6 0 32.7-45 4.1-61.3 28.6-28.7 0-61.4-36.9-57.3zM125 250.3V51.9m0 65.6l-38.9-39M125 143l22.5-27.7M127 74.4l45-24.6"/></symbol><symbol id="apple" viewBox="0 0 256 256"><path fill="none" stroke="#754c24" stroke-linecap="round" stroke-linejoin="round" stroke-width="15.99" d="M126.3 83.2C113 35.4 139.6 10 139.6 10"/><path fill="#de686c" stroke="#d53d42" stroke-linecap="round" stroke-linejoin="round" stroke-width="15.99" d="M126.3 81.3C-10.3-33.9-32.9 246 126.3 246c169.1 0 135.3-279.9 0-164.7z"/><path fill="#ffffe8" d="M72.5 171.2v13.1H58.3v-13.1H29.4v-12.1l28.9-42.8h14.2v41.2h8.2v13.7zm-14.2-13.7v-21.2l-14 21.2zm51 6.4c-11.9-1-22.3-10.3-22.3-24.2a24.4 24.4 0 1 1 48.8 0 27.3 27.3 0 0 1-4.4 14.6l-18.7 30h-17zm2.1-14.1a10 10 0 0 0 10-10.1 10 10 0 1 0-20 0 9.9 9.9 0 0 0 10 10.1zm62.9-19.3v12.1c0 8.9-6.8 15.3-16 15.3s-16-6.4-16-15.3v-12.1c0-8.9 6.8-15.2 16-15.2s16 6.3 16 15.2zm-22.2.3v11.6c0 3.5 2.3 6 6.2 6s6.2-2.5 6.2-6v-11.6c0-3.5-2.3-6-6.2-6s-6.2 2.5-6.2 6zm41.4-14.5h10.2l-30.3 68h-10.1zm30.6 41.6v12.2c0 8.8-6.8 15.3-16 15.3s-15.9-6.5-15.9-15.3v-12.2c0-8.8 6.8-15.2 15.9-15.2s16 6.4 16 15.2zm-22.1.3v11.6a5.7 5.7 0 0 0 6.1 6c3.9 0 6.2-2.5 6.2-6v-11.6c0-3.5-2.3-5.9-6.2-5.9s-6.1 2.4-6.1 5.9z"/></symbol><symbol id="benefits-co2" viewBox="0 0 256 256"><path fill="#ffffe8" stroke="#00a872" stroke-linecap="round" stroke-linejoin="round" stroke-width="9" d="M83.2 7.6h89.7v174.65H83.2z"/><path fill="#ffffe8" stroke="#00a872" stroke-linecap="round" stroke-linejoin="round" stroke-width="9" d="M129.2 248.4l-105-127.5h207.6L129.2 248.4z"/><path fill="#ffffe8" stroke="#00a872" stroke-linecap="round" stroke-linejoin="round" stroke-width="9" d="M183.2 182.3h-121c-30.6-5-30.6-60.2.9-52.3-7.9-63.2 64.7-68.6 86.9-31.6 52.8-17.2 87 58.1 33.2 83.9z"/><path fill="#00a872" d="M110.4 157.6a22.4 22.4 0 0 1-9.8 2.2 22.2 22.2 0 0 1 0-44.3 22.4 22.4 0 0 1 9.8 2.2V128a14.8 14.8 0 0 0-9.8-3.5 12.8 12.8 0 0 0-12.8 13.1c0 7.4 5.4 13.2 12.8 13.2a15.1 15.1 0 0 0 9.8-3.4zm26.3-42.1a21.7 21.7 0 0 1 22.1 22.1c0 12.6-9.5 22.2-22.1 22.2s-22.1-9.6-22.1-22.2a21.7 21.7 0 0 1 22.1-22.1zm0 35.3c7.3 0 12.8-5.8 12.8-13.2a12.9 12.9 0 1 0-12.8 13.2zm25.9 11.3l7.4-8.7c1.3-1.4 2-2.7 2-3.6a2.7 2.7 0 0 0-3-2.9 9.2 9.2 0 0 0-5.9 2.3v-6.8a14 14 0 0 1 6.3-1.6c6.4 0 9 3.9 9 7.8a9.9 9.9 0 0 1-3.1 7.2l-4.7 5.5h7.3v6h-15.3z"/></symbol><symbol id="benefits-food" viewBox="0 0 256 256"><path fill="#ffffe8" stroke="#00a872" stroke-linecap="round" stroke-linejoin="round" stroke-width="9" d="M208.8 37.5c0-25.7-20.9-29.6-29.2-17.8-4.2-19.7-40.8-13-30.8 7.6-23.4-7.6-30.1 15.4-15.1 20.5-29.1-.4-20.8 42.7 4.2 27.2-5 20.6 12.5 19.8 30.9-1.5z"/><path fill="#ffffe8" stroke="#00a872" stroke-linecap="round" stroke-linejoin="round" stroke-width="9" d="M112.9 43.4C83.8 19.7 71.3 79 117.1 79c37.5-4 29.2-59.3-4.2-35.6zm0 0s4.2-15.8-4.1-19.7"/><ellipse cx="186.5" cy="68.3" fill="#ffffe8" stroke="#00a872" stroke-linecap="round" stroke-linejoin="round" stroke-width="9" rx="74.1" ry="19.9" transform="rotate(-55.4 186.577 68.312)"/><path fill="#ffffe8" stroke="#00a872" stroke-linecap="round" stroke-linejoin="round" stroke-width="9" d="M208.8 27.6l8.3 4m-16.7 7.9l8.4 3.9m-16.7 7.9l8.3 4m-16.6 7.9l8.3 3.9M175.4 75l8.4 4m-16.7 7.9l8.3 3.9m-16.6 7.9l8.3 4M88.4 71.1h120a8.8 8.8 0 0 1 8.8 8.8v135.9a21.2 21.2 0 0 1-21.3 21.2h-95.1a21.2 21.2 0 0 1-21.2-21.2V79.9a8.8 8.8 0 0 1 8.8-8.8zm-8.8 103.3h137.5M52 249.8l-27.7-8.9v-94.8l15.8-27.6L52 154v95.8z"/><path fill="#ffffe8" stroke="#00a872" stroke-linecap="round" stroke-linejoin="round" stroke-width="9" d="M52 154h55.3v94.8H52zm55.3 0H52l-11.9-35.5h52.3l14.9 35.5zm-67.2-51.3h51.3v15.8H40.1z"/><path fill="#ffffe8" stroke="#00a872" stroke-linecap="round" stroke-linejoin="round" stroke-width="9" d="M92.5 207c.7 7-4.9 13.3-12.5 14.1s-14.3-4.3-15-11.3 10.6-32.1 12.6-32.3 14.2 22.6 14.9 29.5z"/></symbol><symbol id="benefits-health" viewBox="0 0 256 256"><path fill="#ffffe8" stroke="#00a872" stroke-linecap="round" stroke-linejoin="round" stroke-width="9" d="M131.7 68.9c61-57.3 145.9 16.6 73.9 85l-73.9 77.6-73.9-73.9c-72.1-68.4 9.2-146 73.9-88.7z"/><path fill="#ffffe8" stroke="#00a872" stroke-linecap="round" stroke-linejoin="round" stroke-width="9" d="M6.1 128h81.3l25.8-103.5 29.6 166.3 18.5-62.8h88.6"/></symbol><symbol id="blackberry" viewBox="0 0 256 256"><ellipse cx="54.8" cy="47" fill="#5f5a92" stroke="#322b73" stroke-miterlimit="10" stroke-width="15.46" rx="30.2" ry="31.6" transform="rotate(-29 54.884 46.99)"/><ellipse cx="108.1" cy="42.3" fill="#5f5a92" stroke="#322b73" stroke-miterlimit="10" stroke-width="15.46" rx="29.9" ry="31.9" transform="rotate(-21.2 108.213 42.374)"/><ellipse cx="152.2" cy="53.5" fill="#5f5a92" stroke="#322b73" stroke-miterlimit="10" stroke-width="15.46" rx="29.9" ry="31.9" transform="matrix(.93 -.36 .36 .93 -9.03 58.71)"/><ellipse cx="202.1" cy="72.9" fill="#5f5a92" stroke="#322b73" stroke-miterlimit="10" stroke-width="15.46" rx="29.9" ry="31.9" transform="rotate(-21.2 202.312 72.98)"/><ellipse cx="205.4" cy="116" fill="#5f5a92" stroke="#322b73" stroke-miterlimit="10" stroke-width="15.46" rx="29.9" ry="31.9" transform="rotate(-21.2 205.566 116.176)"/><ellipse cx="50.6" cy="101.4" fill="#5f5a92" stroke="#322b73" stroke-miterlimit="10" stroke-width="15.46" rx="29.9" ry="31.9" transform="rotate(-21.2 50.678 101.568)"/><ellipse cx="99.4" cy="98.1" fill="#5f5a92" stroke="#322b73" stroke-miterlimit="10" stroke-width="15.46" rx="29.9" ry="31.9" transform="rotate(-21.2 99.416 98.246)"/><ellipse cx="57.4" cy="156.2" fill="#5f5a92" stroke="#322b73" stroke-miterlimit="10" stroke-width="15.46" rx="29.9" ry="31.9" transform="rotate(-21.2 57.592 156.233)"/><ellipse cx="150.9" cy="109.3" fill="#5f5a92" stroke="#322b73" stroke-miterlimit="10" stroke-width="15.46" rx="29.6" ry="32.3" transform="rotate(-10.2 151.168 109.49)"/><ellipse cx="117.3" cy="148.9" fill="#5f5a92" stroke="#322b73" stroke-miterlimit="10" stroke-width="15.46" rx="29.6" ry="32.3" transform="rotate(-10.2 117.725 148.859)"/><ellipse cx="81.6" cy="196.9" fill="#5f5a92" stroke="#322b73" stroke-miterlimit="10" stroke-width="15.46" rx="29.9" ry="31.9" transform="rotate(-21.2 81.767 196.982)"/><ellipse cx="184.5" cy="151.8" fill="#5f5a92" stroke="#322b73" stroke-miterlimit="10" stroke-width="15.46" rx="30.1" ry="31.7" transform="rotate(-27 184.282 151.733)"/><ellipse cx="155" cy="189.5" fill="#5f5a92" stroke="#322b73" stroke-miterlimit="10" stroke-width="15.46" rx="29.9" ry="31.9" transform="rotate(-21.2 155.032 189.677)"/><ellipse cx="119.6" cy="213.7" fill="#5f5a92" stroke="#322b73" stroke-miterlimit="10" stroke-width="15.46" rx="29.9" ry="31.9" transform="rotate(-21.2 119.776 214.05)"/><path fill="#ffffe8" d="M34.1 144.2l18.8-23.5c3.2-4 5.1-7.9 5.1-11 0-5.2-3.1-8.3-8.1-8.3a20.3 20.3 0 0 0-14.4 6.3v-16c3.7-2.6 9.8-4.5 15.5-4.5 15.2 0 21.6 9.7 21.6 19.8s-3.2 14.2-7.2 19.3l-12.8 16.3h19.7v13.7H34.1zm87.6-1v13.1h-14.2v-13.1H78.6v-12.1l28.9-42.8h14.2v41.2h8.2v13.7zm-14.2-13.7v-21.2l-14 21.2zm61.1-27v12.1c0 8.9-6.8 15.3-16 15.3s-16-6.4-16-15.3v-12.1c0-8.9 6.8-15.2 16-15.2s16 6.3 16 15.2zm-22.2.3v11.6c0 3.5 2.3 6 6.2 6s6.2-2.5 6.2-6v-11.6c0-3.5-2.3-6-6.2-6s-6.2 2.5-6.2 6zm41.4-14.5H198l-30.3 68h-10.1zm30.6 41.6v12.2c0 8.8-6.8 15.3-16 15.3s-15.9-6.5-15.9-15.3v-12.2c0-8.8 6.8-15.2 15.9-15.2s16 6.4 16 15.2zm-22.1.3v11.6a5.7 5.7 0 0 0 6.1 6c3.9 0 6.2-2.5 6.2-6v-11.6c0-3.5-2.3-5.9-6.2-5.9s-6.1 2.4-6.1 5.9z"/></symbol><symbol id="blueberry" viewBox="0 0 256 256"><circle cx="89.4" cy="128" r="79.7" fill="#5f5a92" stroke="#322b73" stroke-linecap="round" stroke-linejoin="round" stroke-width="14.37"/><path fill="#5f5a92" stroke="#322b73" stroke-linecap="round" stroke-linejoin="round" stroke-width="14.37" d="M82.3 77.2c-8.6-14.2-34.2-2.6-25 13.6-19 3.4-13.2 31 6.2 21.2 0 23 28.2 12.7 23.7-2.7 16.2 9.9 32.3-11.5 10.4-17.7 15.3-8.7-.8-33.3-15.3-14.4z"/><circle cx="180.2" cy="141.5" r="66.1" fill="#5f5a92" stroke="#322b73" stroke-linecap="round" stroke-linejoin="round" stroke-width="14.37"/><path fill="#5f5a92" stroke="#322b73" stroke-linecap="round" stroke-linejoin="round" stroke-width="14.37" d="M205.4 107.3c3.2-13.4-18.7-21.3-22.6-6.4-13.3-9-25.9 10.7-8.7 16.1-13.3 13.7 9.4 23.9 15.7 12.1 3.9 15.3 25.8 11.9 16.4-4.4 14.1 3.7 18.8-20.2-.8-17.4z"/><path fill="#ffffe8" d="M36.6 152.1l18.8-23.5c3.2-4 5.1-7.9 5.1-11 0-5.2-3.1-8.3-8.1-8.3a20.3 20.3 0 0 0-14.4 6.3v-16c3.7-2.6 9.8-4.5 15.5-4.5 15.2 0 21.6 9.7 21.6 19.8s-3.2 14.2-7.2 19.3l-12.8 16.3h19.7v13.7H36.6zm97.1-32.4v20.9c0 14.3-10.4 24.7-24.6 24.7s-24.7-10.4-24.7-24.7v-20.9c0-14.2 10.5-24.6 24.7-24.6s24.6 10.4 24.6 24.6zm-35.1.4v20.2c0 6.4 3.9 11.1 10.5 11.1s10.4-4.7 10.4-11.1v-20.2c0-6.5-3.9-11.1-10.4-11.1s-10.5 4.6-10.5 11.1zm75.4-9.7v12.1c0 8.9-6.8 15.3-16 15.3s-16-6.4-16-15.3v-12.1c0-8.9 6.8-15.2 16-15.2s16 6.3 16 15.2zm-22.2.3v11.6c0 3.5 2.3 6 6.2 6s6.2-2.5 6.2-6v-11.6c0-3.5-2.3-6-6.2-6s-6.2 2.5-6.2 6zm41.4-14.5h10.2l-30.3 68H163zm30.6 41.6V150c0 8.8-6.8 15.3-16 15.3s-15.9-6.5-15.9-15.3v-12.2c0-8.8 6.8-15.2 15.9-15.2s16 6.4 16 15.2zm-22.1.3v11.6a5.7 5.7 0 0 0 6.1 6c3.9 0 6.2-2.5 6.2-6v-11.6c0-3.5-2.3-5.9-6.2-5.9s-6.1 2.4-6.1 5.9z"/></symbol><symbol id="cherries" viewBox="0 0 256 256"><path fill="none" stroke="#006837" stroke-linecap="round" stroke-linejoin="round" stroke-width="14.51" d="M81.4 144.3S73.5 53.1 216.3 13.4"/><path fill="#de686c" stroke="#d53d42" stroke-miterlimit="10" stroke-width="14.51" d="M81.5 139c-101.8-50.7-91.9 116.5 19.1 94 118-24 54.5-182.7-19.1-94z"/><path fill="none" stroke="#006837" stroke-linecap="round" stroke-linejoin="round" stroke-width="14.51" d="M180.2 173.2s-55.1-68.5.4-143.9"/><path fill="#de686c" stroke="#d53d42" stroke-miterlimit="10" stroke-width="14.51" d="M161.8 146.6c-99.2-55.7-97.5 111.8 14.5 94.7 119-18.2 63.3-179.8-14.5-94.7z"/><path fill="#ffffe8" d="M85.8 189.2c-11.9-1-22.3-10.3-22.3-24.2a24.4 24.4 0 1 1 48.8 0 27.3 27.3 0 0 1-4.4 14.6l-18.7 30h-17zm2.1-14.1a10 10 0 0 0 10-10.1 10 10 0 1 0-20 0 9.9 9.9 0 0 0 10 10.1zm62.9-19.3v12.1c0 8.9-6.8 15.3-16 15.3s-16-6.4-16-15.3v-12.1c0-8.9 6.8-15.2 16-15.2s16 6.3 16 15.2zm-22.2.3v11.6c0 3.5 2.3 6 6.2 6s6.2-2.5 6.2-6v-11.6c0-3.5-2.3-6-6.2-6s-6.2 2.5-6.2 6zm41.4-14.5h10.2l-30.3 68h-10.1zm30.6 41.6v12.2c0 8.8-6.8 15.3-16 15.3s-15.9-6.5-15.9-15.3v-12.2c0-8.8 6.8-15.2 15.9-15.2s16 6.4 16 15.2zm-22.1.3v11.6a5.7 5.7 0 0 0 6.1 6c3.9 0 6.2-2.5 6.2-6v-11.6c0-3.5-2.3-5.9-6.2-5.9s-6.1 2.4-6.1 5.9z"/></symbol><symbol id="coins" viewBox="0 0 256 256"><path fill="#8ccc90" stroke="#00a872" stroke-linecap="round" stroke-linejoin="round" stroke-width="4" d="M26.4 175.3v28.9c23.4 13.7 157 17.1 173.7 0v-28.9"/><path fill="#8ccc90" d="M113.2 190.3c-23.5 0-45.6-1.7-62.2-4.9-19.2-3.7-24.3-8.1-24.3-10.1s5.1-6.4 24.3-10.1c16.6-3.2 38.7-4.9 62.2-4.9s45.7 1.7 62.3 4.9c19.1 3.7 24.3 8.1 24.3 10.1s-5.2 6.4-24.3 10.1c-16.6 3.2-38.7 4.9-62.3 4.9z"/><path fill="#00a872" d="M113.2 162.3c22.3 0 43.5 1.6 59.7 4.5 20.2 3.6 24.2 7.6 24.8 8.5s-4.6 4.9-24.8 8.5c-16.2 2.9-37.4 4.5-59.7 4.5s-43.4-1.6-59.7-4.5c-20.1-3.6-24.1-7.7-24.7-8.5s4.6-4.9 24.7-8.5c16.3-2.9 37.5-4.5 59.7-4.5m0-4c-48.8 0-88.5 7.6-88.5 17s39.7 17 88.5 17 88.6-7.6 88.6-17-39.7-17-88.6-17z"/><path fill="#8ccc90" stroke="#00a872" stroke-linecap="round" stroke-linejoin="round" stroke-width="4" d="M36.6 187.2v15.3m10.3-13.6v15.3m10.2-13.6v15.3m10.2-13.6v15.3M77.5 194v15.3m10.2-14.8v15.4m10.2-14.5v15.4m10.2-15.1V211m10.3-15.3V211m10.2-15.3V211m10.2-15.3V211m10.2-15.6v15.4m10.2-16.8v15.3m10.2-16.6V208m10.2-16.9v15.3m10.3-18.6v15.3M51.5 134.9v28.9c23.4 13.6 157 17 173.7 0v-28.9"/><path fill="#8ccc90" d="M138.4 149.9c-23.5 0-45.6-1.8-62.2-5-19.2-3.7-24.3-8-24.3-10s5.1-6.4 24.3-10.1c16.6-3.2 38.7-5 62.2-5s45.6 1.8 62.2 5c19.2 3.7 24.3 8.1 24.3 10.1s-5.1 6.3-24.3 10c-16.6 3.2-38.7 5-62.2 5z"/><path fill="#00a872" d="M138.4 121.8c22.3 0 43.5 1.6 59.7 4.6 20.1 3.6 24.1 7.6 24.7 8.5s-4.6 4.9-24.7 8.5c-16.2 2.9-37.4 4.5-59.7 4.5s-43.5-1.6-59.7-4.5c-20.1-3.6-24.1-7.7-24.8-8.5s4.7-4.9 24.8-8.5c16.2-3 37.4-4.6 59.7-4.6m0-4c-48.9 0-88.5 7.7-88.5 17.1s39.6 17 88.5 17 88.5-7.6 88.5-17-39.6-17.1-88.5-17.1z"/><path fill="#8ccc90" stroke="#00a872" stroke-linecap="round" stroke-linejoin="round" stroke-width="4" d="M61.8 146.8v15.3M72 148.5v15.3m10.2-13.6v15.3m10.2-13.6v15.3m10.2-13.6v15.3m10.2-14.8v15.3m10.3-14.4v15.3m10.2-15v15.3m10.2-15.3v15.3m10.2-15.3v15.3m10.2-15.3v15.3m10.2-15.6v15.3m10.2-16.7v15.3m10.3-16.6v15.3m10.2-16.9V166m10.2-18.6v15.3M5.6 94.4v29c23.4 13.6 157 17 173.7 0v-29"/><path fill="#8ccc90" d="M92.5 109.4c-23.5 0-45.6-1.7-62.2-4.9C11.1 100.8 6 96.4 6 94.4s5.1-6.4 24.3-10.1c16.6-3.1 38.7-4.9 62.2-4.9s45.6 1.8 62.2 4.9C173.9 88 179 92.4 179 94.4s-5.1 6.4-24.3 10.1c-16.6 3.2-38.7 4.9-62.2 4.9z"/><path fill="#00a872" d="M92.5 81.4c22.3 0 43.5 1.6 59.7 4.5 20.1 3.6 24.1 7.7 24.7 8.5s-4.6 4.9-24.7 8.5c-16.2 2.9-37.4 4.5-59.7 4.5s-43.5-1.6-59.7-4.5C12.7 99.3 8.7 95.3 8 94.4s4.7-4.9 24.8-8.5C49 83 70.2 81.4 92.5 81.4m0-4C43.6 77.4 4 85 4 94.4s39.6 17 88.5 17 88.5-7.6 88.5-17-39.6-17-88.5-17z"/><path fill="#8ccc90" stroke="#00a872" stroke-linecap="round" stroke-linejoin="round" stroke-width="4" d="M15.9 106.3v15.4M26.1 108v15.4m10.2-13.7v15.4m10.2-13.7v15.4m10.2-13.7v15.4m10.2-14.8V129m10.3-14.4v15.3m10.2-15.1v15.4m10.2-15.4v15.4m10.2-15.4v15.4m10.2-15.4v15.4m10.2-15.6v15.3m10.2-16.8v15.4m10.3-16.7v15.3m10.2-16.9v15.3m10.2-18.6v15.3M76.7 55.1V84c23.3 13.6 157 17 173.7 0V55.1"/><path fill="#8ccc90" d="M163.5 70.1c-23.5 0-45.6-1.8-62.2-4.9C82.1 61.5 77 57.1 77 55.1s5.1-6.4 24.3-10.1c16.6-3.2 38.7-4.9 62.2-4.9s45.6 1.7 62.2 4.9c19.2 3.7 24.3 8.1 24.3 10.1s-5.1 6.4-24.3 10.1c-16.6 3.1-38.7 4.9-62.2 4.9z"/><path fill="#00a872" d="M163.5 42.1c22.3 0 43.5 1.6 59.7 4.5 20.1 3.6 24.1 7.6 24.8 8.5s-4.7 4.9-24.8 8.5c-16.2 2.9-37.4 4.5-59.7 4.5s-43.5-1.6-59.7-4.5c-20.1-3.6-24.1-7.7-24.7-8.5s4.6-4.9 24.7-8.5c16.2-2.9 37.4-4.5 59.7-4.5m0-4c-48.9 0-88.5 7.6-88.5 17s39.6 17 88.5 17 88.5-7.6 88.5-17-39.6-17-88.5-17z"/><path fill="#8ccc90" stroke="#00a872" stroke-linecap="round" stroke-linejoin="round" stroke-width="4" d="M86.9 67v15.3m10.2-13.6V84m10.2-13.6v15.3m10.3-13.6v15.3m10.2-13.6v15.3M138 74.3v15.3m10.2-14.4v15.4m10.2-15.1v15.3m10.2-15.3v15.3m10.2-15.3v15.3m10.3-15.3v15.3m10.2-15.6v15.4m10.2-16.8v15.3m10.2-16.6v15.3m10.2-16.9v15.3m10.2-18.6v15.3"/></symbol><symbol id="dont-grow" viewBox="0 0 256 256"><path fill="#de686c" stroke="#d53d42" stroke-miterlimit="10" stroke-width="14.51" d="M128 11.9A116.1 116.1 0 1 0 244.1 128 116.1 116.1 0 0 0 128 11.9zm0 47.9a68.2 68.2 0 0 1 24 4.4L64.2 152A68.1 68.1 0 0 1 128 59.8zm0 136.4a68.2 68.2 0 0 1-24-4.4l87.8-87.8a68.1 68.1 0 0 1-63.8 92.2z"/><path fill="#ffffe8" d="M75.5 118H85c4 0 7.1-2.5 7.1-6.4s-3-6.6-7.8-6.6a22.5 22.5 0 0 0-13 4V93.7a34.1 34.1 0 0 1 13.6-2.9c13.4 0 21.8 8.3 21.8 18.9 0 7.4-3.3 12.5-8.1 15.1 5.9 2.8 10 8.4 10 16.3 0 11.2-9.7 19.9-23.1 19.9a41.3 41.3 0 0 1-15-3.1v-16a21.3 21.3 0 0 0 14.2 4.9c5.2 0 9.2-3.1 9.2-7.7s-3.6-7.4-8.8-7.4h-9.6zm72.3-11.9v12.1c0 8.9-6.8 15.3-16 15.3s-16-6.4-16-15.3v-12.1c0-8.9 6.8-15.2 16-15.2s16 6.3 16 15.2zm-22.2.3V118c0 3.5 2.3 6 6.2 6s6.2-2.5 6.2-6v-11.6c0-3.5-2.3-6-6.2-6s-6.2 2.5-6.2 6zM167 91.9h10.2l-30.3 68h-10.1zm30.7 41.6v12.2c0 8.8-6.8 15.3-16.1 15.3s-15.9-6.5-15.9-15.3v-12.2c0-8.8 6.8-15.2 15.9-15.2s16.1 6.4 16.1 15.2zm-22.2.3v11.6a5.7 5.7 0 0 0 6.1 6c3.9 0 6.2-2.5 6.2-6v-11.6c0-3.5-2.3-5.9-6.2-5.9s-6.1 2.4-6.1 5.9z"/></symbol><symbol id="gooseberry" viewBox="0 0 256 256"><path fill="none" stroke="#754c24" stroke-linecap="round" stroke-linejoin="round" stroke-width="14.14" d="M127.3 54.6s-7.8-26.8 19.9-45.9"/><ellipse cx="128" cy="136" fill="#e2e66c" stroke="#cfd50a" stroke-miterlimit="10" stroke-width="14.14" rx="79.6" ry="97.5"/><ellipse cx="128" cy="136" fill="#e2e66c" stroke="#cfd50a" stroke-miterlimit="10" stroke-width="14.14" rx="55.4" ry="97.5"/><ellipse cx="128" cy="136" fill="#e2e66c" stroke="#cfd50a" stroke-miterlimit="10" stroke-width="14.14" rx="24.6" ry="97.5"/><path fill="none" stroke="#cfd50a" stroke-linecap="round" stroke-linejoin="round" stroke-width="14.14" d="M114.8 247.3l12.5-13.7 12.4 13.7"/><path fill="#276654" d="M58.6 120.7l-1.3 10c13.9.4 22.7 8.7 22.7 21.8 0 15.7-10.4 23.6-24.2 23.6a36.8 36.8 0 0 1-16.5-4V155c4 3.8 9.2 6.9 15.7 6.9s10.4-4 10.4-9.4c0-7.1-6.4-8.6-13.7-8.6h-9.1l3.2-36.9h33v13.7zm70.5 41.2V175h-14.2v-13.1H86v-12.1l28.9-42.8h14.2v41.2h8.2v13.7zm-14.2-13.7V127l-14 21.2zm61.1-27v12.1c0 8.9-6.8 15.3-16 15.3s-16-6.4-16-15.3v-12.1c0-8.9 6.8-15.2 16-15.2s16 6.3 16 15.2zm-22.2.3v11.6c0 3.5 2.3 6 6.2 6s6.2-2.5 6.2-6v-11.6c0-3.5-2.3-6-6.2-6s-6.2 2.5-6.2 6zm41.4-14.5h10.2l-30.3 68H165zm30.6 41.6v12.2c0 8.8-6.8 15.3-16 15.3s-15.9-6.5-15.9-15.3v-12.2c0-8.8 6.8-15.2 15.9-15.2s16 6.4 16 15.2zm-22.1.3v11.6a5.7 5.7 0 0 0 6.1 6c3.9 0 6.2-2.5 6.2-6v-11.6c0-3.5-2.3-5.9-6.2-5.9s-6.1 2.4-6.1 5.9z"/></symbol><symbol id="currants" viewBox="0 0 256 256"><ellipse cx="134.6" cy="61.7" fill="#725a9f" stroke="#492b84" stroke-miterlimit="10" stroke-width="16" rx="45.7" ry="47.8" transform="rotate(-44.5 134.532 61.744)"/><ellipse cx="181.8" cy="133.6" fill="#725a9f" stroke="#492b84" stroke-miterlimit="10" stroke-width="16" rx="62.8" ry="60.1" transform="rotate(-.6 180.735 134.639)"/><ellipse cx="84.3" cy="154.6" fill="#725a9f" stroke="#492b84" stroke-miterlimit="10" stroke-width="16" rx="72.9" ry="69.8" transform="rotate(-.6 85.143 153.237)"/><path fill="none" stroke="#492b84" stroke-linecap="round" stroke-linejoin="round" stroke-width="16" d="M104.3 239.3L88 224.7 73.5 241m128.3-33.6L186 192.2 170.9 208"/><path fill="#ffffe8" d="M75.8 161.1v13.1H61.6v-13.1H32.7V149l28.9-42.8h14.2v41.2H84v13.7zm-14.2-13.7v-21.2l-14 21.2zm29.6 14.7l18.8-23.5c3.2-4 5.1-7.9 5.1-11 0-5.2-3.1-8.3-8.1-8.3a20.3 20.3 0 0 0-14.4 6.3v-16c3.7-2.6 9.8-4.5 15.5-4.5 15.2 0 21.6 9.7 21.6 19.8s-3.2 14.2-7.2 19.3l-12.8 16.3h19.7v13.7H91.2zm78.4-41.7v12.1c0 8.9-6.8 15.3-16 15.3s-16-6.4-16-15.3v-12.1c0-8.9 6.8-15.2 16-15.2s16 6.3 16 15.2zm-22.2.3v11.6c0 3.5 2.3 6 6.2 6s6.2-2.5 6.2-6v-11.6c0-3.5-2.3-6-6.2-6s-6.2 2.5-6.2 6zm41.4-14.5H199l-30.3 68h-10.1zm30.6 41.6V160c0 8.8-6.8 15.3-16 15.3s-15.9-6.5-15.9-15.3v-12.2c0-8.8 6.8-15.2 15.9-15.2s16 6.4 16 15.2zm-22.1.3v11.6a5.7 5.7 0 0 0 6.1 6c3.9 0 6.2-2.5 6.2-6v-11.6c0-3.5-2.3-5.9-6.2-5.9s-6.1 2.4-6.1 5.9z"/></symbol><symbol id="plot-size" viewBox="0 0 256 256"><path fill="#8ccc90" d="M23 249.2a16.1 16.1 0 0 1-16.1-16V23a16.1 16.1 0 0 1 16-16.1H233a16.1 16.1 0 0 1 16.1 16V233a16.1 16.1 0 0 1-16 16.1z"/><path fill="#00a872" d="M233 9.3a13.6 13.6 0 0 1 13.6 13.5V233a13.5 13.5 0 0 1-13.5 13.6H23a13.6 13.6 0 0 1-13.6-13.4V23a13.8 13.8 0 0 1 3.9-9.6 13.9 13.9 0 0 1 9.6-4H233m0-5H22.8A18.5 18.5 0 0 0 4.3 23v210.2A18.5 18.5 0 0 0 23 251.7h210.2a18.5 18.5 0 0 0 18.5-18.7V22.8A18.5 18.5 0 0 0 233 4.3z"/><path fill="#ffffe8" d="M24.8 143.9l13.6-17.1c2.3-2.9 3.7-5.7 3.7-7.9 0-3.8-2.3-6.1-5.9-6.1a14.6 14.6 0 0 0-10.4 4.6v-11.6a20.8 20.8 0 0 1 11.2-3.2c11 0 15.7 7 15.7 14.3s-2.3 10.3-5.2 14l-9.3 11.8h14.3v9.9H24.8zm48.3-30.6l-.9 7.2c10.1.3 16.4 6.3 16.4 15.8 0 11.4-7.5 17.1-17.5 17.1a26.9 26.9 0 0 1-12-2.9v-12.4c2.9 2.8 6.7 5.1 11.4 5.1s7.6-2.9 7.6-6.9-4.7-6.2-10-6.2h-6.6l2.3-26.7h24v9.9zm57.8 7.1v15.1c0 10.4-7.5 17.9-17.8 17.9s-17.9-7.5-17.9-17.9v-15.1c0-10.3 7.6-17.8 17.9-17.8s17.8 7.5 17.8 17.8zm-25.4.3v14.6c0 4.7 2.8 8.1 7.6 8.1s7.5-3.4 7.5-8.1v-14.6c0-4.7-2.8-8.1-7.5-8.1s-7.6 3.4-7.6 8.1zm58.5.1a10.7 10.7 0 0 1 9.2-5c5.1 0 9.1 2.3 11.1 6.5a11.2 11.2 0 0 1 10.7-6.5c6.9 0 12.4 5.5 12.4 13.3v23.5h-9.9v-20.7c0-4-2.3-6.4-5.8-6.4s-6 2.4-6 6.4v20.7h-9.9v-20.7c0-4-2.3-6.4-5.8-6.4s-5.8 2.1-6 5.9v21.2h-9.8v-36.1h9.8zm49.2 6.5l8.5-9.9a7.7 7.7 0 0 0 2.2-4.2 3.2 3.2 0 0 0-3.5-3.3 9.5 9.5 0 0 0-6.6 2.7v-7.8a14.4 14.4 0 0 1 7.1-1.9c7.4 0 10.3 4.5 10.3 8.9a12 12 0 0 1-3.4 8.4l-5.5 6.3h8.4v6.9h-17.5z"/></symbol><symbol id="pear" viewBox="0 0 256 256"><path fill="#e2e66c" stroke="#cfd50a" stroke-miterlimit="10" stroke-width="14.37" d="M132.4 42.2c-32.8 0-59.1 14.7-56.5 40.9 2.1 21.3 6.3 38.2-12.8 61.2-38.1 45.9-19.9 102.9 69.3 102.9 82.5 0 95.9-63 62-102.9-20.3-23.9-16.1-38.2-12.9-61.1s-19.6-41-49.1-41z"/><path fill="none" stroke="#754c24" stroke-linecap="round" stroke-linejoin="round" stroke-width="14.37" d="M125.8 48.1s-8.1-30.5 1.7-39.3"/><ellipse cx="165.6" cy="46.2" fill="#009245" stroke="#006837" stroke-miterlimit="10" stroke-width="14.37" rx="18.5" ry="36.9" transform="rotate(-75.3 165.519 46.23)"/><path fill="#276654" d="M44.6 178.5h15.5v-40.6H47.2v-13.7h27.1v54.3h13.3v13.7h-43zm68.3-6.7c-11.9-1-22.3-10.3-22.3-24.2a24.4 24.4 0 1 1 48.8 0 27.3 27.3 0 0 1-4.4 14.6l-18.7 30h-17zm2.1-14.1a10 10 0 0 0 10-10.1 10 10 0 1 0-20 0 9.9 9.9 0 0 0 10 10.1zm62.9-19.3v12.1c0 8.9-6.8 15.3-16 15.3s-16-6.4-16-15.3v-12.1c0-8.9 6.8-15.2 16-15.2s16 6.3 16 15.2zm-22.2.3v11.6c0 3.5 2.3 6 6.2 6s6.2-2.5 6.2-6v-11.6c0-3.5-2.3-6-6.2-6s-6.2 2.5-6.2 6zm41.4-14.5h10.2l-30.3 68h-10.1zm30.6 41.6V178c0 8.8-6.8 15.3-16 15.3s-15.9-6.5-15.9-15.3v-12.2c0-8.8 6.8-15.2 15.9-15.2s16 6.4 16 15.2zm-22.1.3v11.6a5.7 5.7 0 0 0 6.1 6c3.9 0 6.2-2.5 6.2-6v-11.6c0-3.5-2.3-5.9-6.2-5.9s-6.1 2.4-6.1 5.9z"/></symbol><symbol id="raspberry" viewBox="0 0 256 256"><ellipse cx="54.8" cy="47" fill="#e15a8b" stroke="#d82b6a" stroke-miterlimit="10" stroke-width="15.46" rx="30.2" ry="31.6" transform="rotate(-29 54.884 46.99)"/><ellipse cx="108.1" cy="42.3" fill="#e15a8b" stroke="#d82b6a" stroke-miterlimit="10" stroke-width="15.46" rx="29.9" ry="31.9" transform="rotate(-21.2 108.213 42.374)"/><ellipse cx="152.2" cy="53.5" fill="#e15a8b" stroke="#d82b6a" stroke-miterlimit="10" stroke-width="15.46" rx="29.9" ry="31.9" transform="rotate(-21.2 152.33 53.396)"/><ellipse cx="202.1" cy="72.9" fill="#e15a8b" stroke="#d82b6a" stroke-miterlimit="10" stroke-width="15.46" rx="29.9" ry="31.9" transform="rotate(-21.2 202.312 72.98)"/><ellipse cx="205.4" cy="116" fill="#e15a8b" stroke="#d82b6a" stroke-miterlimit="10" stroke-width="15.46" rx="29.9" ry="31.9" transform="rotate(-21.2 205.566 116.176)"/><ellipse cx="50.6" cy="101.4" fill="#e15a8b" stroke="#d82b6a" stroke-miterlimit="10" stroke-width="15.46" rx="29.9" ry="31.9" transform="rotate(-21.2 50.678 101.568)"/><ellipse cx="99.4" cy="98.1" fill="#e15a8b" stroke="#d82b6a" stroke-miterlimit="10" stroke-width="15.46" rx="29.9" ry="31.9" transform="rotate(-21.2 99.416 98.246)"/><ellipse cx="57.4" cy="156.2" fill="#e15a8b" stroke="#d82b6a" stroke-miterlimit="10" stroke-width="15.46" rx="29.9" ry="31.9" transform="rotate(-21.2 57.592 156.233)"/><ellipse cx="150.9" cy="109.3" fill="#e15a8b" stroke="#d82b6a" stroke-miterlimit="10" stroke-width="15.46" rx="29.6" ry="32.3" transform="rotate(-10.2 151.168 109.49)"/><ellipse cx="117.3" cy="148.9" fill="#e15a8b" stroke="#d82b6a" stroke-miterlimit="10" stroke-width="15.46" rx="29.6" ry="32.3" transform="rotate(-10.2 117.725 148.859)"/><ellipse cx="81.6" cy="196.9" fill="#e15a8b" stroke="#d82b6a" stroke-miterlimit="10" stroke-width="15.46" rx="29.9" ry="31.9" transform="rotate(-21.2 81.767 196.982)"/><ellipse cx="184.5" cy="151.8" fill="#e15a8b" stroke="#d82b6a" stroke-miterlimit="10" stroke-width="15.46" rx="30.1" ry="31.7" transform="rotate(-27 184.282 151.733)"/><ellipse cx="155" cy="189.5" fill="#e15a8b" stroke="#d82b6a" stroke-miterlimit="10" stroke-width="15.46" rx="29.9" ry="31.9" transform="rotate(-21.2 155.032 189.677)"/><ellipse cx="119.6" cy="213.7" fill="#e15a8b" stroke="#d82b6a" stroke-miterlimit="10" stroke-width="15.46" rx="29.9" ry="31.9" transform="rotate(-21.2 119.776 214.05)"/><path fill="#ffffe8" d="M53.7 86.1c11.3 0 20.2 8 20.2 19.1a16.1 16.1 0 0 1-6.9 13.6c5.6 3 9.2 8.6 9.2 16.1 0 12.5-9.8 21.4-22.5 21.4s-22.4-8.9-22.4-21.4c0-7.5 3.5-13.1 9.2-16.2-4.2-2.8-6.8-7.5-6.8-13.5 0-11.1 8.8-19.1 20-19.1zm0 57.6a9.1 9.1 0 1 0 0-18.1 9 9 0 0 0-9 9.2 8.9 8.9 0 0 0 9 8.9zm.1-31.7a6.5 6.5 0 0 0 6.7-6.7 6.4 6.4 0 0 0-6.7-6.6 6.7 6.7 0 1 0 0 13.3zm80.2-1.3v20.9c0 14.3-10.4 24.7-24.6 24.7s-24.7-10.4-24.7-24.7v-20.9c0-14.2 10.5-24.6 24.7-24.6S134 96.5 134 110.7zm-35.1.4v20.2c0 6.4 3.9 11.1 10.5 11.1s10.4-4.7 10.4-11.1v-20.2c0-6.5-3.9-11.1-10.4-11.1s-10.5 4.6-10.5 11.1zm75.4-9.7v12.1c0 8.9-6.8 15.3-16 15.3s-16-6.4-16-15.3v-12.1c0-8.9 6.8-15.2 16-15.2s16 6.3 16 15.2zm-22.2.3v11.6c0 3.5 2.3 6 6.2 6s6.2-2.5 6.2-6v-11.6c0-3.5-2.3-6-6.2-6s-6.2 2.5-6.2 6zm41.4-14.5h10.2l-30.3 68h-10.1zm30.6 41.6V141c0 8.8-6.8 15.3-16 15.3s-15.9-6.5-15.9-15.3v-12.2c0-8.8 6.8-15.2 15.9-15.2s16 6.4 16 15.2zm-22.1.3v11.6a5.7 5.7 0 0 0 6.1 6c3.9 0 6.2-2.5 6.2-6v-11.6c0-3.5-2.3-5.9-6.2-5.9s-6.1 2.4-6.1 5.9z"/></symbol><symbol id="plum" viewBox="0 0 256 256"><ellipse cx="105.8" cy="151.5" fill="#725a9f" stroke="#492b84" stroke-miterlimit="10" stroke-width="14.86" rx="81.7" ry="95.7" transform="rotate(-26.7 105.812 151.524)"/><path fill="none" stroke="#754c24" stroke-linecap="round" stroke-linejoin="round" stroke-width="14.86" d="M125.9 60.7s-7.8-34 8.5-50.7"/><ellipse cx="151.8" cy="151.5" fill="#725a9f" stroke="#492b84" stroke-miterlimit="10" stroke-width="14.86" rx="95.7" ry="81.7" transform="rotate(-72.2 151.88 151.504)"/><ellipse cx="168.6" cy="70" fill="#009245" stroke="#006837" stroke-miterlimit="10" stroke-width="14.86" rx="23.9" ry="43.4" transform="rotate(-72.2 168.574 69.992)"/><path fill="#ffffe8" d="M42.7 170.9l18.8-23.5c3.2-4 5.1-7.9 5.1-11 0-5.2-3.1-8.3-8.1-8.3a20.3 20.3 0 0 0-14.4 6.3v-16c3.7-2.6 9.8-4.5 15.5-4.5 15.2 0 21.6 9.7 21.6 19.8S78 147.9 74 153l-12.8 16.3h19.7V183H42.7zm63.6 12.1H90.1l21.9-54.3H88.6V115h39.1v12.1zm58.6-53.8v12.1c0 8.9-6.8 15.3-16 15.3s-16-6.4-16-15.3v-12.1c0-8.9 6.8-15.2 16-15.2s16 6.3 16 15.2zm-22.2.3v11.6c0 3.5 2.3 6 6.2 6s6.2-2.5 6.2-6v-11.6c0-3.5-2.3-6-6.2-6s-6.2 2.5-6.2 6zm41.4-14.5h10.2L164 183h-10.1zm30.6 41.6v12.2c0 8.8-6.8 15.3-16 15.3s-15.9-6.5-15.9-15.3v-12.2c0-8.8 6.8-15.2 15.9-15.2s16 6.4 16 15.2zm-22.1.3v11.6a5.7 5.7 0 0 0 6.1 6c3.9 0 6.2-2.5 6.2-6v-11.6c0-3.5-2.3-5.9-6.2-5.9s-6.1 2.4-6.1 5.9z"/></symbol><symbol id="rhubarb" viewBox="0 0 256 256"><path fill="#de686c" stroke="#d53d42" stroke-linecap="round" stroke-linejoin="round" stroke-width="13.58" d="M156.3 10.2L19.4 192.6l43 21.1L183.7 25.9l-27.4-15.7zm51.2 22l-112.9 198 45.3 15.6 96.7-201.6-29.1-12z"/><path fill="#de686c" stroke="#d53d42" stroke-linecap="round" stroke-linejoin="round" stroke-width="13.58" d="M185.9 13.6L68.4 209l45 16.6L214.7 26.3l-28.8-12.7z"/><path fill="#ffffe8" d="M72 86.1c11.3 0 20.2 8 20.2 19.1a16.1 16.1 0 0 1-6.9 13.6c5.6 3 9.2 8.6 9.2 16.1 0 12.5-9.8 21.4-22.5 21.4s-22.4-8.9-22.4-21.4c0-7.5 3.5-13.1 9.2-16.2-4.2-2.8-6.8-7.5-6.8-13.5 0-11.1 8.8-19.1 20-19.1zm0 57.6a9.1 9.1 0 1 0 0-18.1 9 9 0 0 0-9 9.2 8.9 8.9 0 0 0 9 8.9zm.1-31.7a6.5 6.5 0 0 0 6.7-6.7 6.4 6.4 0 0 0-6.7-6.6 6.7 6.7 0 1 0 0 13.3zm29.4 29.5H117v-40.6h-12.9V87.2h27.1v54.3h13.3v13.7h-43zm79.9-40.1v12.1c0 8.9-6.8 15.3-16 15.3s-16-6.4-16-15.3v-12.1c0-8.9 6.8-15.2 16-15.2s16 6.3 16 15.2zm-22.2.3v11.6c0 3.5 2.3 6 6.2 6s6.2-2.5 6.2-6v-11.6c0-3.5-2.3-6-6.2-6s-6.2 2.5-6.2 6zm41.4-14.5h10.2l-30.3 68h-10.1zm30.6 41.6V141c0 8.8-6.8 15.3-16 15.3s-15.9-6.5-15.9-15.3v-12.2c0-8.8 6.8-15.2 15.9-15.2s16 6.4 16 15.2zm-22.1.3v11.6a5.7 5.7 0 0 0 6.1 6c3.9 0 6.2-2.5 6.2-6v-11.6c0-3.5-2.3-5.9-6.2-5.9s-6.1 2.4-6.1 5.9z"/></symbol><symbol id="strawberry" viewBox="0 0 256 256"><path fill="#de686c" stroke="#d53d42" stroke-miterlimit="10" stroke-width="15.18" d="M137.1 53.5c34.2 20.1 99.5 62.9 68.1 116.3s-121.9 90-156.1 69.9S7.8 141.3 39.2 88s63.7-54.6 97.9-34.5z"/><ellipse cx="113.6" cy="43.3" fill="#009245" stroke="#006837" stroke-miterlimit="10" stroke-width="15.18" rx="30.3" ry="55.1" transform="rotate(-64.1 113.445 43.235)"/><ellipse cx="192.6" cy="97" fill="#009245" stroke="#006837" stroke-miterlimit="10" stroke-width="15.18" rx="30.3" ry="55.1" transform="rotate(-53.3 192.535 96.999)"/><path fill="#009245" stroke="#006837" stroke-linecap="round" stroke-linejoin="round" stroke-width="15.18" d="M151.5 70.1l25.3-36.3"/><ellipse cx="142.7" cy="84.1" fill="#009245" stroke="#006837" stroke-miterlimit="10" stroke-width="15.18" rx="42.1" ry="30.3" transform="rotate(-59.5 142.808 84.175)"/><path fill="#ffffe8" d="M50.3 181.2H34.1L56 126.9H32.6v-13.7h39.1v12.1zm46.9-54.3l-1.3 10c13.9.4 22.7 8.7 22.7 21.8 0 15.7-10.4 23.6-24.2 23.6a36.8 36.8 0 0 1-16.5-4v-17.1c4 3.8 9.2 6.9 15.7 6.9s10.4-4 10.4-9.4c0-7.1-6.4-8.6-13.7-8.6h-9.1l3.2-36.9h33v13.7zm61 .5v12.1c0 8.9-6.8 15.3-16 15.3s-16-6.4-16-15.3v-12.1c0-8.9 6.8-15.2 16-15.2s16 6.3 16 15.2zm-22.2.3v11.6c0 3.5 2.3 6 6.2 6s6.2-2.5 6.2-6v-11.6c0-3.5-2.3-6-6.2-6s-6.2 2.5-6.2 6zm41.4-14.5h10.2l-30.3 68h-10.1zm30.6 41.6V167c0 8.8-6.8 15.3-16 15.3s-15.9-6.5-15.9-15.3v-12.2c0-8.8 6.8-15.2 15.9-15.2s16 6.4 16 15.2zm-22.1.3v11.6a5.7 5.7 0 0 0 6.1 6c3.9 0 6.2-2.5 6.2-6v-11.6c0-3.5-2.3-5.9-6.2-5.9s-6.1 2.4-6.1 5.9z"/></symbol><symbol id="uk" viewBox="0 0 256 256"><path fill="#8ccc90" stroke="#00a872" stroke-linecap="round" stroke-linejoin="round" stroke-width="4" d="M126.4 6.7l-4.6-1.5L111 7h-.5l-9-1.8-3.2 3.3a1.1 1.1 0 0 0-.4.9v5.5a1.3 1.3 0 0 1-.3.8l-2.9 3.6a1.2 1.2 0 0 0-.1 1.4l.8 1.7a1.4 1.4 0 0 1-.6 1.8L88.4 27a1.4 1.4 0 0 0-.8 1l-.7 3.4a1.2 1.2 0 0 0 .2 1l.9 1.4a1.2 1.2 0 0 1-.1 1.6l-1.3 1.4a1.4 1.4 0 0 0-.3 1.5l2.1 4.2a1.1 1.1 0 0 1 .1 1L86 51a.9.9 0 0 0-.1.5V55a1.3 1.3 0 0 1-.8 1.2l-3.9 1.6a1.4 1.4 0 0 0-.4 2.2l.5.4a1.4 1.4 0 0 1 0 1.9l-1.5 1.5a1.3 1.3 0 0 0-.4.9v1.7a1.2 1.2 0 0 1-.4.9h-.1a1.4 1.4 0 0 0 1 2.3h2.7a1.5 1.5 0 0 0 .9-.4l8.1-8.1a1.3 1.3 0 0 1 2.2 1.4L87 80.2a1.7 1.7 0 0 0 0 1l1.1 2.9a1.4 1.4 0 0 0 1.8.7l5-2.1.4-.3 2.4-2.4a1.3 1.3 0 0 1 2 .1l1.1 1.4a1.4 1.4 0 0 1-.3 1.9l-1.8 1.3a1.3 1.3 0 0 0-.4 1.6l3 6.8a.9.9 0 0 1 0 1l-6.8 17.1a1.4 1.4 0 0 0 .3 1.5l1.2 1.2a1.4 1.4 0 0 0 1.9 0l.9-.9a1.3 1.3 0 0 1 1.8 0l2.1 2a1.3 1.3 0 0 0 2.2-.6 1.4 1.4 0 0 1 1.7-1l6.7 2.3h10.8a1.4 1.4 0 0 1 1 2.3l-4.5 4.5a1.2 1.2 0 0 0-.3 1.4l3.1 7.8a1.4 1.4 0 0 0 .9.8l5.6 1.4a1.3 1.3 0 0 1 .9 1.5l-3.3 21.8a1.4 1.4 0 0 1-1.1 1.1l-15.2 2.5a1.1 1.1 0 0 1-.8-.1l-6.2-3.1a1.4 1.4 0 0 0-1.5.3l-1.3 1.3a1.1 1.1 0 0 0-.2 1.6l1.8 3.2a1 1 0 0 1 .1 1.2l-1.9 4.4a1.3 1.3 0 0 0 .8 1.8l6.9 2.1a1.3 1.3 0 0 1 .9 1.3v8.7a1.2 1.2 0 0 1-.2.8l-6 8.5a1 1 0 0 1-.6.5l-13.2 5.8a1.3 1.3 0 0 0-.8 1.6l1.2 3.5a1.4 1.4 0 0 0 1.2.9h3.9l4.9-1.6h.8l5.1 1.4a1.4 1.4 0 0 1 1 1.3v1.4a1.3 1.3 0 0 0 1.3 1.3h4.6a1.1 1.1 0 0 1 .9.4l2.2 2.2.4.2 4.8 2.5h1l7.4-2.4a1.3 1.3 0 0 1 1.6 1.9l-3.6 6.5a1.2 1.2 0 0 1-1.1.7l-19.9.9a1.1 1.1 0 0 0-.9.4l-21.9 25.3a1.4 1.4 0 0 0 .1 1.8l1.2 1.1a1.2 1.2 0 0 0 1.6.2l8.2-4.9h.3l8.6-2.6h.8l9.5 3.2a1.4 1.4 0 0 0 1.7-.7l3.7-8.3a1.3 1.3 0 0 1 1.2-.8h25.5l.7-.2 7.6-5.1.8-.2h10.7l7.1-.9h.4l11.3 1.7a1.4 1.4 0 0 0 .9-.1l19.2-11.5a1.3 1.3 0 0 0 .6-1.1v-2.5a1.3 1.3 0 0 0-1.3-1.4h-8.2a1.3 1.3 0 0 1-1-.4l-4.2-4.2a1.3 1.3 0 0 1 0-1.8l16.3-16.3a1.6 1.6 0 0 0 .4-.7l2.5-15.3a1.3 1.3 0 0 0-.6-1.3l-9.8-5.7a1.4 1.4 0 0 0-1.1-.2l-8.5 2.6h-.2l-5.2 3a1.4 1.4 0 0 1-1.8-.5l-2.7-4.7a2 2 0 0 1-.1-1.3l4-8.6a1.4 1.4 0 0 0-.3-1.5l-6.7-6.7a1.4 1.4 0 0 1 0-1.9l1.8-1.8a1.4 1.4 0 0 0 0-1.9l-2.4-2.4a1.3 1.3 0 0 1-.4-.7l-1.7-8.4a1 1 0 0 0-.4-.7l-6.9-7-.3-.2-5-2.5a1.7 1.7 0 0 1-.6-.6l-18-37.9-.5-.6-8.2-4.9a1.7 1.7 0 0 0-1.4 0l-3.5 2.1a1.5 1.5 0 0 1-.9.2l-5.7-1a1.3 1.3 0 0 1-.2-2.5l2.2-.9a1.1 1.1 0 0 0 .7-.6l1.4-2.7a1.4 1.4 0 0 1 .8-.7l2.9-1a1.4 1.4 0 0 0 .6-2.2l-.8-.7a1.4 1.4 0 0 0-1.2-.4l-3.1.7a1.3 1.3 0 0 1-1.3-2.2l2-1.9a1 1 0 0 1 .9-.4h5.3a1.8 1.8 0 0 0 1-.4l4-4 .3-.5 8.8-21.2a1.1 1.1 0 0 0-.1-1.2l-3.8-6.2a1.3 1.3 0 0 0-1.1-.6h-20.1l-.7.2-7.2 4.2a1.4 1.4 0 0 1-1.9-1.7l1.7-3.7a1.4 1.4 0 0 0-.3-1.5l-1.1-1.1a1.2 1.2 0 0 1 0-1.9l11.7-10.9.3-.4 2.5-5a1.3 1.3 0 0 0 .1-.6V8a1.3 1.3 0 0 0-.9-1.3z"/><path fill="#8ccc90" stroke="#00a872" stroke-linecap="round" stroke-linejoin="round" stroke-width="4" d="M79.4 105.6H67.9a1.1 1.1 0 0 0-.8.3l-3 3.1a1.1 1.1 0 0 1-.8.3h-3.5a1.2 1.2 0 0 0-1 .5l-4.8 7.3a1.2 1.2 0 0 1-1 .5h-1.3a1.1 1.1 0 0 0-.8 1.9 1 1 0 0 1 0 1.6l-4.6 4a1 1 0 0 0-.1 1.6l7.1 7.1a1.2 1.2 0 0 0 .8.4h3.7a1.2 1.2 0 0 0 .8-.4l5-5a1.1 1.1 0 0 1 1.8.3l3.7 7.5a1.2 1.2 0 0 0 .5.5l2.7 1.3a1.3 1.3 0 0 0 1.3-.2l1.4-1.4a1.1 1.1 0 0 1 1.5 0l1.2 1.2a1.2 1.2 0 0 0 1.6 0l3.7-3.7.3-.2 4.7-2.4a1.1 1.1 0 0 0 .6-1v-6.8a1 1 0 0 0-.7-1l-1.4-.5a1.1 1.1 0 0 0-1.1.3l-2.4 2.4a1.2 1.2 0 0 1-1.6 0l-1.8-1.8a1.1 1.1 0 0 1 .3-1.8l4.6-2.3a1.1 1.1 0 0 0 .3-1.8l-3.2-3.2a1.6 1.6 0 0 1-.4-.7l-.7-6.9a1.2 1.2 0 0 0-1.1-1z"/></symbol></svg>