<svg xmlns="http://www.w3.org/2000/svg" width="256" height="256" viewBox="0 0 256 256"><path fill="#ffffe8" stroke="#8ccc90" stroke-linecap="round" stroke-linejoin="round" stroke-width="6" d="M44.9 91.1c-4.7-7.3-18.1-19.4-19-16.7s9.6 12.4 8.1 17.5 1.4 9.5 2.2 10-5.5 4.1-7.2 9.2-13.6 24.2-16.9 24.2-6.5.4-4.8 4.1 3.5 12.9 6 12.9 7.2-1.9 10 0 15.3.7 18.4-1.3 10.9-3.4 14.1-5.5 10.4 1.8 18.2-3.2 18.3 2 20.3-.2-1 28.3 0 31.5-7.2 26-11.6 27.5 13.7 1.5 13.7 1.5l3.5-9.6 1.9 4.6s1.7 1.6 2.9-2 3.9-9.7 2.9-15.4 4.6-10.2 5.4-19.1 8.6-20.3 14-23.8 40.5 20 69.3-8.8c15.4 13.6 2.7 66.9-4.5 71.6s14 2.4 14.8 1.5 3.9-13.2 3.9-9.4 3 8.1 4.9 3.7 1.3-16.8 1.3-21.1 9.7-19.9 8.7-23.5-3-19.2-1-24.1 13.2-34.5 11.9-41.5 3.3-3.4 4.2-3.4-2.7 6.8 2.8 7.7c3.5.6 3.6-3.5 3.2-6.6a7.2 7.2 0 0 1 1.4-5.3c1.4-1.9 2.4-4.7-1.3-7.1s-6.8 5.4-6.8 5.4c-4.3-4.8-24.3-29.2-60.1-22.1s-69.7 20-73.2 20-36.6.5-61.6 16.8z"/><path fill="#ffffe8" stroke="#8ccc90" stroke-linecap="round" stroke-linejoin="round" stroke-width="6" d="M47.2 102c-5-12.1 5.4-29.8 8.1-29.8s26.1 22.6 8 37.7"/><ellipse cx="38.2" cy="120.3" fill="#8ccc90" rx="4" ry="4.5"/></svg>