<svg id="Layer_1" data-name="Layer 1" xmlns="http://www.w3.org/2000/svg" width="830" height="256" viewBox="0 0 830 256"><polygon points="25.3 188.4 27.2 183.9 30.9 181.7 32.8 179.4 34.6 172.7 38.4 170.5 42.1 168.2 43.9 168.2 47.7 168.2 49.5 168.2 53.2 163.7 55.1 163.7 60.7 161.5 63.6 160 64.4 157 68.6 155.5 71.8 152.5 75.5 152.5 79.3 150.3 83 148 84.8 145.8 88.6 145.8 94.1 139.1 105.3 134.6 110.9 132.3 116.5 132.3 118.3 132.3 120.2 134.6 122 136.8 125.8 139.1 131.3 141.3 136.9 141.3 140.6 139.1 144.3 139.1 148.1 141.3 153.6 143.6 157.4 145.8 161.1 143.6 166.7 145.8 170.4 148 172.2 150.3 176 157 181.5 159.3 189 166 192.7 170.5 194.5 175 198.3 181.7 202 183.9 202 188.4 207.6 190.7 213.1 199.6 216.9 206.4 216.9 213.1 220.6 217.6 220.6 224.3 224.3 233.3 222.4 240 222.4 242.3 220.6 244.5 12.3 244.5 8.6 242.3 8.6 235.5 10.5 233.3 10.5 228.8 12.3 224.3 12.3 219.8 16 217.6 16 213.1 17.9 208.6 19.8 201.9 21.6 197.4 21.6 192.9 25.3 188.4" fill="#a67c52" stroke="#7f5631" stroke-miterlimit="10" stroke-width="6.7"/><path d="M249.4,227.8H223.2l-5.5,15.6H200.6l27.1-73.3h17.2l27.2,73.3H254.9ZM228.3,213h16.2l-8.1-22.8Z" fill="#276654"/><path d="M292.7,243.4H277.9V169h14.8Z" fill="#276654"/><path d="M319.7,243.4H305V169h14.7Z" fill="#276654"/><path d="M356.8,188.7a28,28,0,1,1-27.9,27.9A27.5,27.5,0,0,1,356.8,188.7Zm0,41.6c7.6,0,13-6.3,13-13.7s-5.4-13.6-13-13.6-13,6.1-13,13.6S349.4,230.3,356.8,230.3Z" fill="#276654"/><path d="M397.2,243.4V202.2H389V189.7h9V178l13.8-3.2v14.9h9.1v12.5h-9.1v41.2Z" fill="#276654"/><path d="M443.1,196.1a15.7,15.7,0,0,1,13.7-7.4c7.5,0,13.5,3.4,16.5,9.7,2.6-5.5,7.8-9.7,15.8-9.7,10.4,0,18.5,8.1,18.5,19.7v35H492.9V212.6c0-6-3.4-9.6-8.6-9.6s-9,3.6-9,9.6v30.8H460.7V212.6c0-6-3.5-9.6-8.6-9.6s-8.7,3.2-9,8.8v31.6H428.4V189.7h14.7Z" fill="#276654"/><path d="M531,221.2c1.3,6.2,6.7,10.2,14.2,10.2a35.3,35.3,0,0,0,18.3-5.1v14.1c-4.8,2.5-11.7,4.2-19.5,4.2-15.9,0-27.7-11.3-27.7-28s11.4-27.9,26.9-27.9,25.1,11.6,25.1,25.5a29,29,0,0,1-.9,7Zm0-11.1h23.2c-.2-5.5-4.9-9.3-11.1-9.3S531.7,205,531,210.1Z" fill="#276654"/><path d="M591.7,196.5a15.8,15.8,0,0,1,14.1-7.8c11.6,0,19,8.6,19,20.1v34.6H610V212.9c0-5.9-3.5-9.9-9.1-9.9s-8.9,3.6-9.2,9.3v31.1H577V189.7h14.7Z" fill="#276654"/><path d="M640.2,243.4V202.2H632V189.7h9.1V178l13.8-3.2v14.9H664v12.5h-9.1v41.2Z" fill="#276654"/><path d="M701.5,204.9a25.6,25.6,0,0,0-11.8-3.5c-3.6,0-5.2,1.8-5.2,3.9s1,2.5,3.1,3.8l7.7,4.6c6.5,3.9,8.9,8.9,8.9,14.5,0,9.3-6.9,16.4-19.7,16.4a38.9,38.9,0,0,1-14.1-2.7V227.3c2.5,2.1,8.7,4.7,13,4.7s5.6-1.7,5.6-4-1-3.1-3.6-4.6l-8.4-4.9a15.3,15.3,0,0,1-7.8-13.8c0-9.5,7.4-16,20-16a44.6,44.6,0,0,1,12.3,1.8Z" fill="#276654"/><path d="M302.9,97.4A43,43,0,0,0,283,92.7c-12.7,0-22.2,9.5-22.2,22.5s8.8,22.5,21.2,22.5,18.8-8,18.8-16c0-.5-.1-1.2-.1-1.6h-19V106.2h34.7a56.2,56.2,0,0,1,1,10.6c0,19.3-12.3,36.3-35.8,36.3-21.2,0-36.5-16.5-36.5-37.9S261,77.4,283,77.4c7.6,0,15,1.3,19.9,3.4Z" fill="#276654"/><path d="M340.4,104a14.5,14.5,0,0,1,12.7-6.9,29.7,29.7,0,0,1,4.2.3v15.7a17.5,17.5,0,0,0-7.9-1.7c-5.1,0-8.7,3.6-9,9.3v31.2H325.7V98.2h14.7Z" fill="#276654"/><path d="M388.8,97.1A28,28,0,1,1,360.9,125,27.5,27.5,0,0,1,388.8,97.1Zm0,41.6c7.6,0,12.9-6.2,12.9-13.7s-5.3-13.6-12.9-13.6-13,6.2-13,13.6S381.4,138.7,388.8,138.7Z" fill="#276654"/><path d="M435,98.2l9.5,35.7,9.4-28.4-2.5-7.3h14.5l12.5,35.7,9.3-35.7h15.2l-16,53.7H471.6L461,122.4l-10,29.5H435.6L419.8,98.2Z" fill="#276654"/><path d="M514.1,151.9V110.7h-8.2V98.2H515V86.4l13.8-3.1V98.2h9v12.5h-9v41.2Z" fill="#276654"/><path d="M560.1,105a15.8,15.8,0,0,1,14.1-7.9c11.5,0,19,8.6,19,20.2v34.6H578.4V121.4c0-6-3.6-10-9.1-10s-8.9,3.6-9.2,9.3v31.2H545.4V77.5h14.7Z" fill="#276654"/><path d="M323.7,36H311.5V25.9h34.7V36H334.1V75.9H323.7Z" fill="#276654"/><path d="M361.9,43.9a10.9,10.9,0,0,1,9.6-5.4c7.9,0,13,5.9,13,13.8V75.9H374.4V55.1c0-4.1-2.4-6.8-6.2-6.8s-6.1,2.4-6.3,6.3V75.9h-10V25.2h10Z" fill="#276654"/><path d="M400.4,60.7c.9,4.2,4.6,7,9.7,7a24.1,24.1,0,0,0,12.5-3.5v9.6a29.8,29.8,0,0,1-13.3,2.9c-10.9,0-18.9-7.7-18.9-19.1s7.8-19.1,18.3-19.1,17.2,8,17.2,17.5a21.5,21.5,0,0,1-.6,4.7Zm0-7.5h15.8c-.1-3.8-3.3-6.3-7.5-6.3S400.9,49.7,400.4,53.2Z" fill="#276654"/><path d="M647,103.8a19.1,19.1,0,1,1-19.1,19A18.7,18.7,0,0,1,647,103.8Zm0,28.4c5.1,0,8.8-4.3,8.8-9.4a8.9,8.9,0,1,0-17.7,0A9.1,9.1,0,0,0,647,132.2Z" fill="#276654"/><path d="M691.7,114.5h-7.1v26.7h-10V114.5h-5.1V106h5.1v-3.3c0-8.6,5.4-13,13.5-13a19.2,19.2,0,0,1,3.8.4v10a10.9,10.9,0,0,0-3.4-.6,3.6,3.6,0,0,0-3.9,3.9V106h7.1Z" fill="#276654"/><path d="M131.1,120l66.2,27.9-19.4,44.5c-8.3,14.5-31.9,19-44.8,17.2-10.2-10.1-25.8-26-20-46.7Z" fill="#8ccc90" stroke="#276654" stroke-linecap="round" stroke-linejoin="round" stroke-width="7.52"/><path d="M151.8,167l-3.2-1.4a4.2,4.2,0,0,1-2.4-5.2l10.4-33.9a4.3,4.3,0,0,1,5.8-2.7l9.4,4a4.3,4.3,0,0,1,2.1,6l-16.6,31.3A4.4,4.4,0,0,1,151.8,167Z" fill="#8ccc90" stroke="#276654" stroke-linecap="round" stroke-linejoin="round" stroke-width="7.52"/><rect x="143.3" y="80.5" width="81.8" height="11.97" transform="translate(33 222.7) rotate(-67.2)" fill="#8ccc90" stroke="#276654" stroke-linecap="round" stroke-linejoin="round" stroke-width="7.52"/><polygon points="228.6 34.1 205.6 51.1 194.6 46.4 190 17.8 228.6 34.1" fill="#8ccc90" stroke="#276654" stroke-linecap="round" stroke-linejoin="round" stroke-width="7.52"/><polygon points="226.8 16.7 228.6 34.1 190 17.8 204.2 7.2 226.8 16.7" fill="#8ccc90" stroke="#276654" stroke-linecap="round" stroke-linejoin="round" stroke-width="7.52"/><path d="M795.8,94l-68.9,20.3-5.8-42.8c-4.9-23.6-9.2-37.3-5.2-38.7,6.5-2.3,11.1,14.8,18,34.1l8.6-2.3c-4.8-21.5-9.4-36.5-3-38.8s11.1,14.9,18,34.2l8.6-2.4c-4.7-17.1-7.3-36.5-3-36.6,6.9-.1,8.9,12.8,15.9,34.2Z" fill="#8ccc90" stroke="#276654" stroke-linecap="round" stroke-linejoin="round" stroke-width="7.52"/><path d="M750.1,72.9l3.4-1a4.2,4.2,0,0,1,5.1,2.5L772,107.3a4.2,4.2,0,0,1-2.8,5.7l-9.8,2.9a4.3,4.3,0,0,1-5.4-3.3l-6.9-34.7A4.4,4.4,0,0,1,750.1,72.9Z" fill="#8ccc90" stroke="#276654" stroke-linecap="round" stroke-linejoin="round" stroke-width="7.52"/><rect x="735.1" y="149.8" width="81.8" height="11.97" transform="translate(706 -632.6) rotate(73.6)" fill="#8ccc90" stroke="#276654" stroke-linecap="round" stroke-linejoin="round" stroke-width="7.52"/><polygon points="774.7 224.4 781.8 196.7 793.3 193.3 814.9 212.6 774.7 224.4" fill="#8ccc90" stroke="#276654" stroke-linecap="round" stroke-linejoin="round" stroke-width="7.52"/><polygon points="787.1 236.7 774.7 224.4 814.9 212.6 810.6 229.8 787.1 236.7" fill="#8ccc90" stroke="#276654" stroke-linecap="round" stroke-linejoin="round" stroke-width="7.52"/><polygon points="92.7 213.2 93.8 210.3 96.2 208.9 97.4 207.4 98.6 203.1 101 201.7 103.4 200.3 104.6 200.3 106.9 200.3 108.1 200.3 110.5 197.4 111.7 197.4 115.3 196 117.1 195 117.6 193.1 120.3 192.1 122.4 190.2 124.8 190.2 127.2 188.8 129.5 187.4 130.7 185.9 133.1 185.9 136.7 181.6 143.8 178.8 147.4 177.3 151 177.3 152.2 177.3 153.3 178.8 154.5 180.2 156.9 181.6 160.5 183.1 164.1 183.1 166.4 181.6 168.8 181.6 171.2 183.1 174.8 184.5 177.1 185.9 179.5 184.5 183.1 185.9 185.5 187.4 186.7 188.8 189 193.1 192.6 194.5 197.4 198.8 199.8 201.7 200.9 204.6 203.3 208.9 205.7 210.3 205.7 213.2 209.3 214.6 212.8 220.3 215.2 224.6 215.2 228.9 217.6 231.8 217.6 236.1 220 241.8 218.8 246.1 218.8 247.5 217.6 249 84.3 249 81.9 247.5 81.9 243.2 83.1 241.8 83.1 238.9 84.3 236.1 84.3 233.2 86.7 231.8 86.7 228.9 87.9 226.1 89.1 221.8 90.3 218.9 90.3 216 92.7 213.2" fill="#a67c52" stroke="#7f5631" stroke-miterlimit="10" stroke-width="7.09"/><ellipse cx="503.4" cy="45.3" rx="10.1" ry="23.3" transform="matrix(0.09, -1, 1, 0.09, 414.66, 542.84)" fill="#00a872" stroke="#276654" stroke-linecap="round" stroke-linejoin="round" stroke-width="8"/><ellipse cx="545" cy="57.9" rx="8.7" ry="20" transform="translate(286 540.9) rotate(-67.9)" fill="#00a872" stroke="#276654" stroke-linecap="round" stroke-linejoin="round" stroke-width="8"/><path d="M521.9,94s-4.3-25.5,4.8-45.7" fill="none" stroke="#276654" stroke-linecap="round" stroke-linejoin="round" stroke-width="8"/></svg>