<svg xmlns="http://www.w3.org/2000/svg" width="830" height="256" viewBox="0 0 830 256"><path fill="#a67c52" stroke="#7f5631" stroke-miterlimit="10" stroke-width="6.7" d="M25.3 188.4l1.9-4.5 3.7-2.2 1.9-2.3 1.8-6.7 3.8-2.2 3.7-2.3h7.4l3.7-4.5h1.9l5.6-2.2 2.9-1.5.8-3 4.2-1.5 3.2-3h3.7l3.8-2.2L83 148l1.8-2.2h3.8l5.5-6.7 11.2-4.5 5.6-2.3h7.4l1.9 2.3 1.8 2.2 3.8 2.3 5.5 2.2h5.6l3.7-2.2h3.7l3.8 2.2 5.5 2.3 3.8 2.2 3.7-2.2 5.6 2.2 3.7 2.2 1.8 2.3 3.8 6.7 5.5 2.3 7.5 6.7 3.7 4.5 1.8 4.5 3.8 6.7 3.7 2.2v4.5l5.6 2.3 5.5 8.9 3.8 6.8v6.7l3.7 4.5v6.7l3.7 9-1.9 6.7v2.3l-1.8 2.2H12.3l-3.7-2.2v-6.8l1.9-2.2v-4.5l1.8-4.5v-4.5l3.7-2.2v-4.5l1.9-4.5 1.9-6.7 1.8-4.5v-4.5l3.7-4.5z"/><path fill="#276654" d="M249.4 227.8h-26.2l-5.5 15.6h-17.1l27.1-73.3h17.2l27.2 73.3h-17.2zM228.3 213h16.2l-8.1-22.8zm64.4 30.4h-14.8V169h14.8zm27 0H305V169h14.7zm37.1-54.7a28 28 0 1 1-27.9 27.9 27.5 27.5 0 0 1 27.9-27.9zm0 41.6c7.6 0 13-6.3 13-13.7s-5.4-13.6-13-13.6-13 6.1-13 13.6 5.6 13.7 13 13.7zm40.4 13.1v-41.2H389v-12.5h9V178l13.8-3.2v14.9h9.1v12.5h-9.1v41.2zm45.9-47.3a15.7 15.7 0 0 1 13.7-7.4c7.5 0 13.5 3.4 16.5 9.7 2.6-5.5 7.8-9.7 15.8-9.7 10.4 0 18.5 8.1 18.5 19.7v35h-14.7v-30.8c0-6-3.4-9.6-8.6-9.6s-9 3.6-9 9.6v30.8h-14.6v-30.8c0-6-3.5-9.6-8.6-9.6s-8.7 3.2-9 8.8v31.6h-14.7v-53.7h14.7zm87.9 25.1c1.3 6.2 6.7 10.2 14.2 10.2a35.3 35.3 0 0 0 18.3-5.1v14.1c-4.8 2.5-11.7 4.2-19.5 4.2-15.9 0-27.7-11.3-27.7-28s11.4-27.9 26.9-27.9 25.1 11.6 25.1 25.5a29 29 0 0 1-.9 7zm0-11.1h23.2c-.2-5.5-4.9-9.3-11.1-9.3s-11.4 4.2-12.1 9.3zm60.7-13.6a15.8 15.8 0 0 1 14.1-7.8c11.6 0 19 8.6 19 20.1v34.6H610v-30.5c0-5.9-3.5-9.9-9.1-9.9s-8.9 3.6-9.2 9.3v31.1H577v-53.7h14.7zm48.5 46.9v-41.2H632v-12.5h9.1V178l13.8-3.2v14.9h9.1v12.5h-9.1v41.2zm61.3-38.5a25.6 25.6 0 0 0-11.8-3.5c-3.6 0-5.2 1.8-5.2 3.9s1 2.5 3.1 3.8l7.7 4.6c6.5 3.9 8.9 8.9 8.9 14.5 0 9.3-6.9 16.4-19.7 16.4a38.9 38.9 0 0 1-14.1-2.7v-14.6c2.5 2.1 8.7 4.7 13 4.7s5.6-1.7 5.6-4-1-3.1-3.6-4.6l-8.4-4.9a15.3 15.3 0 0 1-7.8-13.8c0-9.5 7.4-16 20-16a44.6 44.6 0 0 1 12.3 1.8zM302.9 97.4a43 43 0 0 0-19.9-4.7c-12.7 0-22.2 9.5-22.2 22.5s8.8 22.5 21.2 22.5 18.8-8 18.8-16c0-.5-.1-1.2-.1-1.6h-19v-13.9h34.7a56.2 56.2 0 0 1 1 10.6c0 19.3-12.3 36.3-35.8 36.3-21.2 0-36.5-16.5-36.5-37.9S261 77.4 283 77.4c7.6 0 15 1.3 19.9 3.4zm37.5 6.6a14.5 14.5 0 0 1 12.7-6.9 29.7 29.7 0 0 1 4.2.3v15.7a17.5 17.5 0 0 0-7.9-1.7c-5.1 0-8.7 3.6-9 9.3v31.2h-14.7V98.2h14.7zm48.4-6.9a28 28 0 1 1-27.9 27.9 27.5 27.5 0 0 1 27.9-27.9zm0 41.6c7.6 0 12.9-6.2 12.9-13.7s-5.3-13.6-12.9-13.6-13 6.2-13 13.6 5.6 13.7 13 13.7zM435 98.2l9.5 35.7 9.4-28.4-2.5-7.3h14.5l12.5 35.7 9.3-35.7h15.2l-16 53.7h-15.3L461 122.4l-10 29.5h-15.4l-15.8-53.7zm79.1 53.7v-41.2h-8.2V98.2h9.1V86.4l13.8-3.1v14.9h9v12.5h-9v41.2zm46-46.9a15.8 15.8 0 0 1 14.1-7.9c11.5 0 19 8.6 19 20.2v34.6h-14.8v-30.5c0-6-3.6-10-9.1-10s-8.9 3.6-9.2 9.3v31.2h-14.7V77.5h14.7zM323.7 36h-12.2V25.9h34.7V36h-12.1v39.9h-10.4zm38.2 7.9a10.9 10.9 0 0 1 9.6-5.4c7.9 0 13 5.9 13 13.8v23.6h-10.1V55.1c0-4.1-2.4-6.8-6.2-6.8s-6.1 2.4-6.3 6.3v21.3h-10V25.2h10zm38.5 16.8c.9 4.2 4.6 7 9.7 7a24.1 24.1 0 0 0 12.5-3.5v9.6a29.8 29.8 0 0 1-13.3 2.9c-10.9 0-18.9-7.7-18.9-19.1s7.8-19.1 18.3-19.1 17.2 8 17.2 17.5a21.5 21.5 0 0 1-.6 4.7zm0-7.5h15.8c-.1-3.8-3.3-6.3-7.5-6.3s-7.8 2.8-8.3 6.3zM647 103.8a19.1 19.1 0 1 1-19.1 19 18.7 18.7 0 0 1 19.1-19zm0 28.4c5.1 0 8.8-4.3 8.8-9.4a8.9 8.9 0 1 0-17.7 0 9.1 9.1 0 0 0 8.9 9.4zm44.7-17.7h-7.1v26.7h-10v-26.7h-5.1V106h5.1v-3.3c0-8.6 5.4-13 13.5-13a19.2 19.2 0 0 1 3.8.4v10a10.9 10.9 0 0 0-3.4-.6 3.6 3.6 0 0 0-3.9 3.9v2.6h7.1z"/><g fill="#8ccc90" stroke="#276654" stroke-linecap="round" stroke-linejoin="round" stroke-width="7.52"><path d="M131.1 120l66.2 27.9-19.4 44.5c-8.3 14.5-31.9 19-44.8 17.2-10.2-10.1-25.8-26-20-46.7z"/><path d="M151.8 167l-3.2-1.4a4.2 4.2 0 0 1-2.4-5.2l10.4-33.9a4.3 4.3 0 0 1 5.8-2.7l9.4 4a4.3 4.3 0 0 1 2.1 6l-16.6 31.3a4.4 4.4 0 0 1-5.5 1.9zm10.941-45.208l31.699-75.408 11.034 4.638-31.698 75.409z"/><path d="M228.6 34.1l-23 17-11-4.7-4.6-28.6 38.6 16.3z"/><path d="M226.8 16.7l1.8 17.4L190 17.8l14.2-10.6 22.6 9.5z"/></g><g fill="#8ccc90" stroke="#276654" stroke-linecap="round" stroke-linejoin="round" stroke-width="7.52"><path d="M795.8 94l-68.9 20.3-5.8-42.8c-4.9-23.6-9.2-37.3-5.2-38.7 6.5-2.3 11.1 14.8 18 34.1l8.6-2.3c-4.8-21.5-9.4-36.5-3-38.8s11.1 14.9 18 34.2l8.6-2.4c-4.7-17.1-7.3-36.5-3-36.6 6.9-.1 8.9 12.8 15.9 34.2z"/><path d="M750.1 72.9l3.4-1a4.2 4.2 0 0 1 5.1 2.5l13.4 32.9a4.2 4.2 0 0 1-2.8 5.7l-9.8 2.9a4.3 4.3 0 0 1-5.4-3.3l-6.9-34.7a4.4 4.4 0 0 1 3-5zm19.744 41.986l23.096 78.472-11.483 3.38-23.096-78.472zM774.7 224.4l7.1-27.7 11.5-3.4 21.6 19.3-40.2 11.8z"/><path d="M787.1 236.7l-12.4-12.3 40.2-11.8-4.3 17.2-23.5 6.9z"/></g><path fill="#a67c52" stroke="#7f5631" stroke-miterlimit="10" stroke-width="7.09" d="M92.7 213.2l1.1-2.9 2.4-1.4 1.2-1.5 1.2-4.3 2.4-1.4 2.4-1.4h4.7l2.4-2.9h1.2l3.6-1.4 1.8-1 .5-1.9 2.7-1 2.1-1.9h2.4l2.4-1.4 2.3-1.4 1.2-1.5h2.4l3.6-4.3 7.1-2.8 3.6-1.5h4.8l1.1 1.5 1.2 1.4 2.4 1.4 3.6 1.5h3.6l2.3-1.5h2.4l2.4 1.5 3.6 1.4 2.3 1.4 2.4-1.4 3.6 1.4 2.4 1.5 1.2 1.4 2.3 4.3 3.6 1.4 4.8 4.3 2.4 2.9 1.1 2.9 2.4 4.3 2.4 1.4v2.9l3.6 1.4 3.5 5.7 2.4 4.3v4.3l2.4 2.9v4.3l2.4 5.7-1.2 4.3v1.4l-1.2 1.5H84.3l-2.4-1.5v-4.3l1.2-1.4v-2.9l1.2-2.8v-2.9l2.4-1.4v-2.9l1.2-2.8 1.2-4.3 1.2-2.9V216l2.4-2.8z"/><g stroke="#276654" stroke-linecap="round" stroke-linejoin="round" stroke-width="8"><ellipse cx="503.4" cy="45.3" fill="#00a872" rx="10.1" ry="23.3" transform="matrix(.09 -1 1 .09 414.66 542.84)"/><ellipse cx="545" cy="57.9" fill="#00a872" rx="8.7" ry="20" transform="rotate(-67.9 544.714 58.044)"/><path fill="none" d="M521.9 94s-4.3-25.5 4.8-45.7"/></g></svg>