<svg xmlns="http://www.w3.org/2000/svg" width="256" height="256" viewBox="0 0 256 256"><path fill="#ffffe8" stroke="#8ccc90" stroke-linecap="round" stroke-linejoin="round" stroke-width="6" d="M75.4 41.9c3.2-13.1 2.3-23.3-6.1-23.3s-14.1 17-16 20.6 1.1 30.6-3.6 38.6 21.1 5 21.1 5z"/><path fill="#ffffe8" stroke="#8ccc90" stroke-linecap="round" stroke-linejoin="round" stroke-width="6" d="M91.6 110.3c-6.7-6.7-10-17.9-3.7-24.2s28.3-56.4 16.4-67c-4.5-3.9-24.7 14.5-35.4 32.2-7.5 12.4-9.4 23.6-12.3 24.4-12 3.2-29.7 10.4-33.8 18.2s-13.4 19.5-14.5 25c-2 9.1.5 31.5 11.9 26.9 6.1-2.4 15.7 2 14 11.4-2.1 11.5 7.8 35.8 15.4 40.2s19.5 3.5 20.8 8.2 5.1 18.2-13.1 18.2-12.6 13.4-10.3 13.4h36.4c12.3-4.5 15.3-23.5 21.2-23.5s21.4 17.6 32.5 15.3c0 0-7 5.7-2.7 8.2 0 0 79.5 1.3 83.7-2.6 1.3-1.2 16.4-1.4 23.3-7.3s12.8-28.8-5.4-24.7c-3.1-31.8-14.2-61.6-57-86.3s-80.9.5-87.4-6z"/><circle cx="35.2" cy="112.5" r="5.9" fill="#8ccc90"/></svg>