<svg xmlns="http://www.w3.org/2000/svg" width="256" height="256" viewBox="0 0 256 256"><path fill="#ffffe8" stroke="#8ccc90" stroke-linecap="round" stroke-linejoin="round" stroke-width="6" d="M89.9 100c1-7.6-17.4-36.6-27.6-39.7 9.2-7 22.6-1.7 28.6 2.1 68.8-12.5 76.5 43.4 91.8 108.5 3.3 10.4-3.7 14.2-7.3 6.6 1.8 12.6-3.6 17.8-11.9 9 2.5 12.1-4.1 21.8-10.6 9.2 2.4 12.1-7.8 18.4-12 6 .7 11.9-10.9 23.3-15.6 6.1-.2 14.7-11.7 16.7-12.8 3-1.6 12.2-12 14.9-12 1.9-3 9-16.1 10.2-12.7-1.7l8.5-32.4c-37.4 19.1-55.8-27.6-3.7-51.2 0 0-22 1.7-35.1-5.9 0 0 23.3-11 32.4-21.5z"/><path fill="#ffffe8" stroke="#8ccc90" stroke-linecap="round" stroke-linejoin="round" stroke-width="6" d="M110 60.6c3.3-19 31.4-36.1 61.3-18.4-13.7 5.7-9.7 11-9.7 11 15.3-4.4 29.6 16.4 29.6 16.4-12.7-1.7-10 8.6-10 8.6 17.5 1.2 22.4 25.5 22.4 25.5-13.8-1.9-13.9 7.5-13.9 7.5 5.3 17.2 15.5 24.5 15.5 24.5-12.5 9.5-30.7.2-30.7.2-6.3-17.6-11.8-71.8-64.5-75.3z"/><circle cx="116.3" cy="86.3" r="9.8" fill="#8ccc90"/><path fill="#e07376" d="M40.777 192.517l167.846-137.38 13.282 16.227-167.846 137.38z"/><circle cx="128" cy="128" r="115.4" fill="none" stroke="#e07376" stroke-miterlimit="10" stroke-width="18.79"/></svg>